<svg width="41" height="41" viewBox="0 0 41 41" fill="none" xmlns="http://www.w3.org/2000/svg">
<path d="M41 28.5536V38.8036C41.0007 39.0922 40.9444 39.3781 40.8343 39.645C40.7242 39.9118 40.5624 40.1542 40.3583 40.3583C40.1542 40.5624 39.9118 40.7242 39.645 40.8343C39.3781 40.9444 39.0922 41.0007 38.8036 41H28.5536C26.596 41 25.6168 38.6297 26.9978 37.2478L30.3107 33.9348L20.5 24.1241L10.6865 33.944L14.0022 37.2478C15.3832 38.6297 14.404 41 12.4464 41H2.19643C1.90779 41.0007 1.62185 40.9444 1.35504 40.8343C1.08823 40.7242 0.845812 40.5624 0.641711 40.3583C0.437609 40.1542 0.275849 39.9118 0.165725 39.645C0.0556005 39.3781 -0.000717426 39.0922 6.89897e-06 38.8036V28.5536C6.89897e-06 26.5951 2.3694 25.6158 3.75224 26.9978L7.06427 30.3107L16.8814 20.5L7.06335 10.6801L3.75224 14.0022C2.37032 15.3842 6.89897e-06 14.4049 6.89897e-06 12.4464V2.19643C-0.000717426 1.90779 0.0556005 1.62185 0.165725 1.35504C0.275849 1.08823 0.437609 0.845812 0.641711 0.64171C0.845812 0.437609 1.08823 0.275849 1.35504 0.165725C1.62185 0.0556005 1.90779 -0.000717426 2.19643 6.89896e-06H12.4464C14.404 6.89896e-06 15.3832 2.37032 14.0022 3.75224L10.6893 7.06518L20.5 16.8759L30.3135 7.05603L26.9978 3.75224C25.6168 2.37032 26.596 6.89896e-06 28.5536 6.89896e-06H38.8036C39.0922 -0.000717426 39.3781 0.0556005 39.645 0.165725C39.9118 0.275849 40.1542 0.437609 40.3583 0.64171C40.5624 0.845812 40.7242 1.08823 40.8343 1.35504C40.9444 1.62185 41.0007 1.90779 41 2.19643V12.4464C41 14.4049 38.6306 15.3842 37.2478 14.0022L33.9357 10.6893L24.1186 20.5L33.9366 30.3199L37.2478 27.0069C38.6297 25.6158 41 26.5951 41 28.5536Z" fill="white" fill-opacity="0.35"/>
</svg>
