<svg width="42" height="42" viewBox="0 0 42 42" fill="none" xmlns="http://www.w3.org/2000/svg">
<path d="M1.3125 23.625C0.590625 23.625 0 24.2156 0 24.9375V27.5625C0 28.2844 0.590625 28.875 1.3125 28.875H10.5V23.625H1.3125ZM41.4258 8.61328L33.3949 0.574219C33.0258 0.205078 32.5254 0 32.0004 0H31.5V10.5H42V9.99961C42 9.48281 41.7949 8.98242 41.4258 8.61328ZM28.875 11.1562V0H12.4688C11.3777 0 10.5 0.877734 10.5 1.96875V23.625H21V18.2766C21 17.1035 22.4191 16.5211 23.2477 17.3496L31.0898 25.2656C31.6313 25.8152 31.6313 26.693 31.0898 27.2344L23.2395 35.1422C22.4109 35.9707 20.9918 35.3883 20.9918 34.2152V28.875H10.5V40.0312C10.5 41.1223 11.3777 42 12.4688 42H40.0312C41.1223 42 42 41.1223 42 40.0312V13.125H30.8438C29.7609 13.125 28.875 12.2391 28.875 11.1562Z" fill="white" fill-opacity="0.35"/>
</svg>
