<svg width="53" height="42" viewBox="0 0 53 42" fill="none" xmlns="http://www.w3.org/2000/svg">
<path d="M21.1197 21.4635C21.6373 21.9762 22.4761 21.9762 22.9937 21.4635L23.9303 20.5357C24.4479 20.023 24.4479 19.192 23.9303 18.6793L20.9723 15.75L23.9295 12.8198C24.4471 12.3071 24.4471 11.4762 23.9295 10.9635L22.9929 10.0357C22.4753 9.52301 21.6364 9.52301 21.1188 10.0357L16.2876 14.8214C15.77 15.3341 15.77 16.1651 16.2876 16.6778L21.1197 21.4635ZM29.0705 20.5365L30.0071 21.4643C30.5247 21.977 31.3636 21.977 31.8812 21.4643L36.7124 16.6786C37.23 16.1659 37.23 15.3349 36.7124 14.8222L31.8812 10.0365C31.3636 9.52383 30.5247 9.52383 30.0071 10.0365L29.0705 10.9643C28.5529 11.477 28.5529 12.308 29.0705 12.8207L32.0277 15.75L29.0705 18.6802C28.5529 19.1929 28.5529 20.0238 29.0705 20.5365ZM51.675 34.125H31.5963C31.535 35.75 30.3781 36.75 28.885 36.75H23.85C22.3022 36.75 21.1155 35.3169 21.1362 34.125H1.325C0.59625 34.125 0 34.7156 0 35.4375V36.75C0 39.6375 2.385 42 5.3 42H47.7C50.615 42 53 39.6375 53 36.75V35.4375C53 34.7156 52.4038 34.125 51.675 34.125ZM47.7 3.9375C47.7 1.77188 45.9113 0 43.725 0H9.275C7.08875 0 5.3 1.77188 5.3 3.9375V31.5H47.7V3.9375ZM42.4 26.25H10.6V5.25H42.4V26.25Z" fill="white" fill-opacity="0.35"/>
</svg>
