<svg width="43" height="43" viewBox="0 0 43 43" fill="none" xmlns="http://www.w3.org/2000/svg">
<path d="M38.9687 34.9375L4.03125 34.9375C1.80482 34.9375 -1.44828e-06 33.1327 -1.35096e-06 30.9062L-5.28635e-07 12.0937C-4.31314e-07 9.86732 1.80482 8.0625 4.03125 8.0625L38.9687 8.0625C41.1952 8.0625 43 9.86732 43 12.0938L43 30.9062C43 33.1327 41.1952 34.9375 38.9687 34.9375ZM34.0977 43L33.0898 43C32.9562 43 32.828 42.9469 32.7335 42.8524C32.639 42.7579 32.5859 42.6297 32.5859 42.4961L32.5859 40.9844L32.082 40.9844C31.9484 40.9844 31.8202 40.9313 31.7257 40.8368C31.6312 40.7423 31.5781 40.6141 31.5781 40.4805L31.5781 36.9531L35.6094 36.9531L35.6094 40.4805C35.6094 40.6141 35.5563 40.7423 35.4618 40.8368C35.3673 40.9313 35.2391 40.9844 35.1055 40.9844L34.6016 40.9844L34.6016 42.4961C34.6016 42.6297 34.5485 42.7579 34.454 42.8524C34.3595 42.9469 34.2313 43 34.0977 43ZM26.0352 43L25.0273 43C24.8937 43 24.7655 42.9469 24.671 42.8524C24.5765 42.7579 24.5234 42.6297 24.5234 42.4961L24.5234 40.9844L24.0195 40.9844C23.8859 40.9844 23.7577 40.9313 23.6632 40.8368C23.5687 40.7423 23.5156 40.6141 23.5156 40.4805L23.5156 36.9531L27.5469 36.9531L27.5469 40.4805C27.5469 40.6141 27.4938 40.7423 27.3993 40.8368C27.3048 40.9313 27.1766 40.9844 27.043 40.9844L26.5391 40.9844L26.5391 42.4961C26.5391 42.6297 26.486 42.7579 26.3915 42.8524C26.297 42.9469 26.1688 43 26.0352 43ZM17.9727 43L16.9648 43C16.8312 43 16.703 42.9469 16.6085 42.8524C16.514 42.7579 16.4609 42.6297 16.4609 42.4961L16.4609 40.9844L15.957 40.9844C15.8234 40.9844 15.6952 40.9313 15.6007 40.8368C15.5062 40.7423 15.4531 40.6141 15.4531 40.4805L15.4531 36.9531L19.4844 36.9531L19.4844 40.4805C19.4844 40.6141 19.4313 40.7423 19.3368 40.8368C19.2423 40.9313 19.1141 40.9844 18.9805 40.9844L18.4766 40.9844L18.4766 42.4961C18.4766 42.6297 18.4235 42.7579 18.329 42.8524C18.2345 42.9469 18.1063 43 17.9727 43ZM9.91015 43L8.90234 43C8.7687 43 8.64053 42.9469 8.54603 42.8524C8.45152 42.7579 8.39844 42.6297 8.39844 42.4961L8.39844 40.9844L7.89453 40.9844C7.76089 40.9844 7.63272 40.9313 7.53821 40.8368C7.44371 40.7423 7.39062 40.6141 7.39062 40.4805L7.39062 36.9531L11.4219 36.9531L11.4219 40.4805C11.4219 40.6141 11.3688 40.7423 11.2743 40.8368C11.1798 40.9313 11.0516 40.9844 10.918 40.9844L10.4141 40.9844L10.4141 42.4961C10.4141 42.6297 10.361 42.7579 10.2665 42.8524C10.172 42.9469 10.0438 43 9.91015 43ZM11.4219 2.51953L11.4219 6.04687L7.39062 6.04687L7.39062 2.51953C7.39062 2.38589 7.44371 2.25771 7.53822 2.16321C7.63272 2.06871 7.76089 2.01562 7.89453 2.01562L8.39844 2.01562L8.39844 0.503905C8.39844 0.37026 8.45153 0.24209 8.54603 0.147589C8.64053 0.0530885 8.7687 -1.4963e-06 8.90234 -1.49046e-06L9.91016 -1.4464e-06C10.0438 -1.44056e-06 10.172 0.0530885 10.2665 0.147589C10.361 0.24209 10.4141 0.370261 10.4141 0.503905L10.4141 2.01562L10.918 2.01562C11.0516 2.01562 11.1798 2.06871 11.2743 2.16321C11.3688 2.25772 11.4219 2.38589 11.4219 2.51953ZM19.4844 2.51953L19.4844 6.04687L15.4531 6.04687L15.4531 2.51953C15.4531 2.38589 15.5062 2.25772 15.6007 2.16321C15.6952 2.06871 15.8234 2.01562 15.957 2.01562L16.4609 2.01562L16.4609 0.503905C16.4609 0.370261 16.514 0.24209 16.6085 0.14759C16.703 0.0530888 16.8312 -1.14387e-06 16.9648 -1.13803e-06L17.9727 -1.09398e-06C18.1063 -1.08814e-06 18.2345 0.0530889 18.329 0.14759C18.4235 0.24209 18.4766 0.370261 18.4766 0.503905L18.4766 2.01562L18.9805 2.01562C19.1141 2.01562 19.2423 2.06871 19.3368 2.16321C19.4313 2.25772 19.4844 2.38589 19.4844 2.51953ZM27.5469 2.51953L27.5469 6.04687L23.5156 6.04687L23.5156 2.51953C23.5156 2.38589 23.5687 2.25772 23.6632 2.16321C23.7577 2.06871 23.8859 2.01562 24.0195 2.01562L24.5234 2.01562L24.5234 0.503905C24.5234 0.370261 24.5765 0.242091 24.671 0.14759C24.7655 0.0530892 24.8937 -7.91452e-07 25.0273 -7.8561e-07L26.0352 -7.41557e-07C26.1688 -7.35715e-07 26.297 0.0530892 26.3915 0.14759C26.486 0.242091 26.5391 0.370261 26.5391 0.503906L26.5391 2.01562L27.043 2.01562C27.1766 2.01562 27.3048 2.06871 27.3993 2.16321C27.4938 2.25772 27.5469 2.38589 27.5469 2.51953ZM35.6094 2.51953L35.6094 6.04687L31.5781 6.04687L31.5781 2.51953C31.5781 2.38589 31.6312 2.25772 31.7257 2.16322C31.8202 2.06871 31.9484 2.01562 32.082 2.01562L32.5859 2.01562L32.5859 0.503906C32.5859 0.370262 32.639 0.242091 32.7335 0.14759C32.828 0.0530895 32.9562 -4.39028e-07 33.0898 -4.33187e-07L34.0977 -3.89134e-07C34.2313 -3.83292e-07 34.3595 0.0530896 34.454 0.14759C34.5485 0.242091 34.6016 0.370262 34.6016 0.503906L34.6016 2.01562L35.1055 2.01562C35.2391 2.01562 35.3673 2.06871 35.4618 2.16322C35.5563 2.25772 35.6094 2.38589 35.6094 2.51953Z" fill="white" fill-opacity="0.35"/>
</svg>
