<svg width="44" height="43" viewBox="0 0 44 43" fill="none" xmlns="http://www.w3.org/2000/svg">
<path d="M41.9891 20.9434L33.6875 17.4692V7.0563C33.6875 5.61673 32.8883 4.33071 31.6766 3.82206L23.0828 0.223134C22.3867 -0.0743779 21.6133 -0.0743779 20.9086 0.223134L12.3148 3.82206C11.1031 4.33071 10.3039 5.61673 10.3039 7.0563V17.4692L2.00234 20.9434C0.799219 21.452 0 22.738 0 24.1776V34.7441C0 36.0493 0.661719 37.2489 1.71016 37.8343L10.3039 42.6329C11.1719 43.1224 12.2031 43.1224 13.0711 42.6329L22 37.6424L30.9289 42.6329C31.7969 43.1224 32.8281 43.1224 33.6961 42.6329L42.2898 37.8343C43.3383 37.2489 44 36.0493 44 34.7441V24.1776C44 22.738 43.2008 21.452 41.9891 20.9434ZM30.7656 17.546L23.4609 20.6075V14.0622L30.7656 10.5113V17.546ZM13.2344 6.92194L22 3.25583L30.7656 6.92194V6.97952L22 10.9527L13.2344 6.97952V6.92194ZM20.4531 34.8592L13.1484 38.938V31.3467L20.4531 27.623V34.8592ZM20.4531 24.1104L11.6875 28.0836L2.92188 24.1104V24.0528L11.6875 20.3867L20.4531 24.0528V24.1104ZM41.0781 34.8592L33.7734 38.938V31.3467L41.0781 27.623V34.8592ZM41.0781 24.1104L32.3125 28.0836L23.5469 24.1104V24.0528L32.3125 20.3867L41.0781 24.0528V24.1104Z" fill="white" fill-opacity="0.35"/>
</svg>
