<svg width="50" height="43" viewBox="0 0 50 43" fill="none" xmlns="http://www.w3.org/2000/svg">
<path d="M46.875 9.21429V6.14286H48.8281C49.4753 6.14286 50 5.62714 50 4.99107V1.15179C50 0.515712 49.4753 0 48.8281 0H44.9219C44.2747 0 43.75 0.515712 43.75 1.15179V3.07143H6.25V1.15179C6.25 0.515712 5.72529 0 5.07812 0H1.17188C0.524707 0 0 0.515712 0 1.15179V4.99107C0 5.62714 0.524707 6.14286 1.17188 6.14286H3.125V36.8571H1.17188C0.524707 36.8571 0 37.3729 0 38.0089V41.8482C0 42.4843 0.524707 43 1.17188 43H5.07812C5.72529 43 6.25 42.4843 6.25 41.8482V39.9286H43.75V41.8482C43.75 42.4843 44.2747 43 44.9219 43H48.8281C49.4753 43 50 42.4843 50 41.8482V38.0089C50 37.3729 49.4753 36.8571 48.8281 36.8571H46.875V9.21429ZM9.375 23.4196V10.3661C9.375 9.73 9.89971 9.21429 10.5469 9.21429H26.9531C27.6003 9.21429 28.125 9.73 28.125 10.3661V23.4196C28.125 24.0557 27.6003 24.5714 26.9531 24.5714H10.5469C9.89971 24.5714 9.375 24.0557 9.375 23.4196ZM40.625 32.6339C40.625 33.27 40.1003 33.7857 39.4531 33.7857H23.0469C22.3997 33.7857 21.875 33.27 21.875 32.6339V27.6429H28.9062C30.2007 27.6429 31.25 26.6115 31.25 25.3393V18.4286H39.4531C40.1003 18.4286 40.625 18.9443 40.625 19.5804V32.6339Z" fill="white" fill-opacity="0.35"/>
</svg>
