<svg width="44" height="44" viewBox="0 0 44 44" fill="none" xmlns="http://www.w3.org/2000/svg">
<path d="M42.9688 19.25H40.3593C39.1638 11.1998 32.8002 4.83622 24.75 3.64066V1.03125C24.75 0.461742 24.2883 0 23.7188 0H20.2812C19.7117 0 19.25 0.461742 19.25 1.03125V3.64066C11.1998 4.83622 4.83622 11.1998 3.64066 19.25H1.03125C0.461742 19.25 0 19.7117 0 20.2812V23.7188C0 24.2883 0.461742 24.75 1.03125 24.75H3.64066C4.83622 32.8002 11.1998 39.1638 19.25 40.3593V42.9688C19.25 43.5383 19.7117 44 20.2812 44H23.7188C24.2883 44 24.75 43.5383 24.75 42.9688V40.3593C32.8002 39.1638 39.1638 32.8002 40.3593 24.75H42.9688C43.5383 24.75 44 24.2883 44 23.7188V20.2812C44 19.7117 43.5383 19.25 42.9688 19.25ZM24.75 34.7732V31.2812C24.75 30.7117 24.2883 30.25 23.7188 30.25H20.2812C19.7117 30.25 19.25 30.7117 19.25 31.2812V34.7732C14.2507 33.7074 10.2939 29.7553 9.22677 24.75H12.7188C13.2883 24.75 13.75 24.2883 13.75 23.7188V20.2812C13.75 19.7117 13.2883 19.25 12.7188 19.25H9.22677C10.2926 14.2507 14.2447 10.2939 19.25 9.22677V12.7188C19.25 13.2883 19.7117 13.75 20.2812 13.75H23.7188C24.2883 13.75 24.75 13.2883 24.75 12.7188V9.22677C29.7493 10.2926 33.7062 14.2447 34.7732 19.25H31.2812C30.7117 19.25 30.25 19.7117 30.25 20.2812V23.7188C30.25 24.2883 30.7117 24.75 31.2812 24.75H34.7732C33.7074 29.7493 29.7553 33.7062 24.75 34.7732ZM24.75 22C24.75 23.5188 23.5188 24.75 22 24.75C20.4812 24.75 19.25 23.5188 19.25 22C19.25 20.4812 20.4812 19.25 22 19.25C23.5188 19.25 24.75 20.4812 24.75 22Z" fill="white" fill-opacity="0.35"/>
</svg>
