<svg width="58" height="40" viewBox="0 0 58 40" fill="none" xmlns="http://www.w3.org/2000/svg">
<path d="M33.35 0H24.65C23.0487 0 21.75 1.27946 21.75 2.85714V11.4286C21.75 13.0063 23.0487 14.2857 24.65 14.2857H33.35C34.9513 14.2857 36.25 13.0063 36.25 11.4286V2.85714C36.25 1.27946 34.9513 0 33.35 0ZM18.85 5H11.1695C10.3086 2.90714 8.23238 1.42857 5.8 1.42857C2.59731 1.42857 0 3.98661 0 7.14286C0 10.2991 2.59731 12.8571 5.8 12.8571C8.23238 12.8571 10.3086 11.3786 11.1695 9.28571H18.3951C13.3772 12.1893 9.70775 17.0821 8.468 22.8571H12.9449C13.9689 19.142 16.2772 15.9634 19.3829 13.7893C19.0476 13.0679 18.85 12.2723 18.85 11.4286V5ZM14.5 25.7143H5.8C4.19866 25.7143 2.9 26.9938 2.9 28.5714V37.1429C2.9 38.7205 4.19866 40 5.8 40H14.5C16.1013 40 17.4 38.7205 17.4 37.1429V28.5714C17.4 26.9938 16.1013 25.7143 14.5 25.7143ZM52.2 1.42857C49.7676 1.42857 47.6914 2.90714 46.8305 5H39.15V11.4286C39.15 12.2723 38.9515 13.0679 38.6171 13.7893C41.7228 15.9634 44.0311 19.142 45.0551 22.8571H49.532C48.2923 17.0821 44.6228 12.1893 39.6049 9.28571H46.8305C47.6914 11.3786 49.7676 12.8571 52.2 12.8571C55.4027 12.8571 58 10.2991 58 7.14286C58 3.98661 55.4027 1.42857 52.2 1.42857ZM52.2 25.7143H43.5C41.8987 25.7143 40.6 26.9938 40.6 28.5714V37.1429C40.6 38.7205 41.8987 40 43.5 40H52.2C53.8013 40 55.1 38.7205 55.1 37.1429V28.5714C55.1 26.9938 53.8013 25.7143 52.2 25.7143Z" fill="white" fill-opacity="0.35"/>
</svg>
