<svg width="52" height="38" viewBox="0 0 52 38" fill="none" xmlns="http://www.w3.org/2000/svg">
<path d="M48.75 6.33333H45.5V1.58333C45.5 0.708542 44.7728 0 43.875 0H34.125C33.2272 0 32.5 0.708542 32.5 1.58333V6.33333H19.5V1.58333C19.5 0.708542 18.7728 0 17.875 0H8.125C7.22719 0 6.5 0.708542 6.5 1.58333V6.33333H3.25C1.45539 6.33333 0 7.75141 0 9.5V34.8333C0 36.5819 1.45539 38 3.25 38H48.75C50.5446 38 52 36.5819 52 34.8333V9.5C52 7.75141 50.5446 6.33333 48.75 6.33333ZM19.5 19.7917C19.5 20.2291 19.1364 20.5833 18.6875 20.5833H7.3125C6.86359 20.5833 6.5 20.2291 6.5 19.7917V18.2083C6.5 17.7709 6.86359 17.4167 7.3125 17.4167H18.6875C19.1364 17.4167 19.5 17.7709 19.5 18.2083V19.7917ZM45.5 19.7917C45.5 20.2291 45.1364 20.5833 44.6875 20.5833H40.625V24.5417C40.625 24.9791 40.2614 25.3333 39.8125 25.3333H38.1875C37.7386 25.3333 37.375 24.9791 37.375 24.5417V20.5833H33.3125C32.8636 20.5833 32.5 20.2291 32.5 19.7917V18.2083C32.5 17.7709 32.8636 17.4167 33.3125 17.4167H37.375V13.4583C37.375 13.0209 37.7386 12.6667 38.1875 12.6667H39.8125C40.2614 12.6667 40.625 13.0209 40.625 13.4583V17.4167H44.6875C45.1364 17.4167 45.5 17.7709 45.5 18.2083V19.7917Z" fill="white" fill-opacity="0.35"/>
</svg>
