<svg width="48" height="39" viewBox="0 0 48 39" fill="none" xmlns="http://www.w3.org/2000/svg">
<path d="M28.8 24.375H19.2C17.8748 24.375 16.8 25.4665 16.8 26.8125V36.5625C16.8 37.9085 17.8748 39 19.2 39H28.8C30.1253 39 31.2 37.9085 31.2 36.5625V26.8125C31.2 25.4665 30.1253 24.375 28.8 24.375ZM14.4 2.4375C14.4 1.09154 13.3252 0 12 0H2.4C1.07475 0 0 1.09154 0 2.4375V12.1875C0 13.5335 1.07475 14.625 2.4 14.625H9.579L15.066 24.378C15.8985 22.9262 17.43 21.9375 19.2 21.9375H19.221L14.4 13.3689V9.75H31.2V4.875H14.4V2.4375ZM45.6 0H36C34.6748 0 33.6 1.09154 33.6 2.4375V12.1875C33.6 13.5335 34.6748 14.625 36 14.625H45.6C46.9253 14.625 48 13.5335 48 12.1875V2.4375C48 1.09154 46.9253 0 45.6 0Z" fill="white" fill-opacity="0.35"/>
</svg>
