<svg width="58" height="38" viewBox="0 0 58 38" fill="none" xmlns="http://www.w3.org/2000/svg">
<path d="M58 23.75V33.25C58 35.8734 55.8361 38 53.1667 38H4.83333C2.16392 38 0 35.8734 0 33.25V23.75C0 21.1266 2.16392 19 4.83333 19H53.1667C55.8361 19 58 21.1266 58 23.75ZM53.1667 15.8333C54.2307 15.8324 55.2842 16.0398 56.2657 16.4434L46.546 2.11514C46.1046 1.4645 45.5066 0.931026 44.805 0.56205C44.1035 0.193074 43.3201 1.23683e-05 42.5244 0H15.4756C14.6799 2.50456e-06 13.8966 0.19306 13.195 0.562038C12.4935 0.931016 11.8955 1.4645 11.4541 2.11514L1.73426 16.4434C2.71581 16.0398 3.76933 15.8324 4.83333 15.8333H53.1667ZM48.3333 25.3333C46.5538 25.3333 45.1111 26.7511 45.1111 28.5C45.1111 30.2489 46.5538 31.6667 48.3333 31.6667C50.1129 31.6667 51.5556 30.2489 51.5556 28.5C51.5556 26.7511 50.1129 25.3333 48.3333 25.3333ZM38.6667 25.3333C36.8871 25.3333 35.4444 26.7511 35.4444 28.5C35.4444 30.2489 36.8871 31.6667 38.6667 31.6667C40.4462 31.6667 41.8889 30.2489 41.8889 28.5C41.8889 26.7511 40.4462 25.3333 38.6667 25.3333Z" fill="white" fill-opacity="0.35"/>
</svg>
