<svg width="43" height="43" viewBox="0 0 43 43" fill="none" xmlns="http://www.w3.org/2000/svg">
<path d="M43 10.75V2.6875C43 1.2035 41.7965 0 40.3125 0H32.25C30.766 0 29.5625 1.2035 29.5625 2.6875H13.4375C13.4375 1.2035 12.234 0 10.75 0H2.6875C1.2035 0 0 1.2035 0 2.6875V10.75C0 12.234 1.2035 13.4375 2.6875 13.4375V29.5625C1.2035 29.5625 0 30.766 0 32.25V40.3125C0 41.7965 1.2035 43 2.6875 43H10.75C12.234 43 13.4375 41.7965 13.4375 40.3125H29.5625C29.5625 41.7965 30.766 43 32.25 43H40.3125C41.7965 43 43 41.7965 43 40.3125V32.25C43 30.766 41.7965 29.5625 40.3125 29.5625V13.4375C41.7965 13.4375 43 12.234 43 10.75ZM34.9375 5.375H37.625V8.0625H34.9375V5.375ZM5.375 5.375H8.0625V8.0625H5.375V5.375ZM8.0625 37.625H5.375V34.9375H8.0625V37.625ZM37.625 37.625H34.9375V34.9375H37.625V37.625ZM34.9375 29.5625H32.25C30.766 29.5625 29.5625 30.766 29.5625 32.25V34.9375H13.4375V32.25C13.4375 30.766 12.234 29.5625 10.75 29.5625H8.0625V13.4375H10.75C12.234 13.4375 13.4375 12.234 13.4375 10.75V8.0625H29.5625V10.75C29.5625 12.234 30.766 13.4375 32.25 13.4375H34.9375V29.5625Z" fill="white" fill-opacity="0.35"/>
</svg>
