<svg width="42" height="42" viewBox="0 0 42 42" fill="none" xmlns="http://www.w3.org/2000/svg">
<path d="M37.4898 28.2528C35.4349 29.9204 33.1724 31.3026 30.7188 32.2763L35.1798 40.0027L39.6055 41.8927C40.4102 42.2364 41.3191 41.7114 41.4241 40.8427L42 36.0645L37.4898 28.2528ZM40.9754 20.496C41.3741 19.8668 41.1305 19.0203 40.4791 18.6594L38.1764 17.3822C37.5628 17.0417 36.8139 17.2624 36.4324 17.8514C33.0601 23.0627 27.2554 26.2496 21.0004 26.2496C19.0374 26.2496 17.126 25.901 15.3065 25.3038L20.8322 15.7325C20.8897 15.7342 20.9422 15.7498 20.9996 15.7498C21.057 15.7498 21.1103 15.7342 21.1669 15.7325L25.358 22.9922C27.9199 22.2572 30.2439 20.8799 32.1347 18.9793L27.8862 11.6204C28.4974 10.5023 28.8756 9.23904 28.8756 7.87488C28.8756 3.52565 25.3498 0 21.0004 0C16.651 0 13.1253 3.52565 13.1253 7.87488C13.1253 9.23904 13.5034 10.5023 14.1138 11.6204L8.51091 21.3253C7.4814 20.373 6.5454 19.3082 5.74804 18.1262C5.3551 17.5438 4.60204 17.337 3.99418 17.6889L1.71777 19.0072C1.07381 19.3796 0.845759 20.2294 1.2551 20.8504C2.53235 22.7896 4.10082 24.4769 5.8473 25.9379L0 36.0653L0.575871 40.8435C0.680873 41.7122 1.5898 42.2372 2.39454 41.8935L6.82021 40.0036L12.6281 29.9442C15.2688 30.9483 18.0981 31.4995 21.0004 31.4995C29.1258 31.4995 36.6588 27.3152 40.9754 20.496ZM21.0004 5.24992C22.4499 5.24992 23.6255 6.42541 23.6255 7.87488C23.6255 9.32435 22.4499 10.4998 21.0004 10.4998C19.5509 10.4998 18.3754 9.32435 18.3754 7.87488C18.3754 6.42541 19.5509 5.24992 21.0004 5.24992Z" fill="white" fill-opacity="0.35"/>
</svg>
