<svg width="48" height="40" viewBox="0 0 48 40" fill="none" xmlns="http://www.w3.org/2000/svg">
<path d="M45 11.4286H3C1.34316 11.4286 0 10.1494 0 8.57143V2.85714C0 1.2792 1.34316 0 3 0H45C46.6568 0 48 1.2792 48 2.85714V8.57143C48 10.1494 46.6568 11.4286 45 11.4286ZM40.5 3.57143C39.2573 3.57143 38.25 4.5308 38.25 5.71429C38.25 6.89777 39.2573 7.85714 40.5 7.85714C41.7427 7.85714 42.75 6.89777 42.75 5.71429C42.75 4.5308 41.7427 3.57143 40.5 3.57143ZM34.5 3.57143C33.2573 3.57143 32.25 4.5308 32.25 5.71429C32.25 6.89777 33.2573 7.85714 34.5 7.85714C35.7427 7.85714 36.75 6.89777 36.75 5.71429C36.75 4.5308 35.7427 3.57143 34.5 3.57143ZM45 25.7143H3C1.34316 25.7143 0 24.4351 0 22.8571V17.1429C0 15.5649 1.34316 14.2857 3 14.2857H45C46.6568 14.2857 48 15.5649 48 17.1429V22.8571C48 24.4351 46.6568 25.7143 45 25.7143ZM40.5 17.8571C39.2573 17.8571 38.25 18.8165 38.25 20C38.25 21.1835 39.2573 22.1429 40.5 22.1429C41.7427 22.1429 42.75 21.1835 42.75 20C42.75 18.8165 41.7427 17.8571 40.5 17.8571ZM34.5 17.8571C33.2573 17.8571 32.25 18.8165 32.25 20C32.25 21.1835 33.2573 22.1429 34.5 22.1429C35.7427 22.1429 36.75 21.1835 36.75 20C36.75 18.8165 35.7427 17.8571 34.5 17.8571ZM45 40H3C1.34316 40 0 38.7208 0 37.1429V31.4286C0 29.8506 1.34316 28.5714 3 28.5714H45C46.6568 28.5714 48 29.8506 48 31.4286V37.1429C48 38.7208 46.6568 40 45 40ZM40.5 32.1429C39.2573 32.1429 38.25 33.1022 38.25 34.2857C38.25 35.4692 39.2573 36.4286 40.5 36.4286C41.7427 36.4286 42.75 35.4692 42.75 34.2857C42.75 33.1022 41.7427 32.1429 40.5 32.1429ZM34.5 32.1429C33.2573 32.1429 32.25 33.1022 32.25 34.2857C32.25 35.4692 33.2573 36.4286 34.5 36.4286C35.7427 36.4286 36.75 35.4692 36.75 34.2857C36.75 33.1022 35.7427 32.1429 34.5 32.1429Z" fill="white" fill-opacity="0.35"/>
</svg>
