<svg width="53" height="39" viewBox="0 0 53 39" fill="none" xmlns="http://www.w3.org/2000/svg">
<path d="M16.3058 21.125H20.1317L18.2188 15.7198L16.3058 21.125ZM36.4375 19.5C35.068 19.5 33.9531 20.5938 33.9531 21.9375C33.9531 23.2812 35.068 24.375 36.4375 24.375C37.807 24.375 38.9219 23.2812 38.9219 21.9375C38.9219 20.5938 37.807 19.5 36.4375 19.5ZM48.0312 0H4.96875C2.22559 0 0 2.18359 0 4.875V34.125C0 36.8164 2.22559 39 4.96875 39H48.0312C50.7744 39 53 36.8164 53 34.125V4.875C53 2.18359 50.7744 0 48.0312 0ZM25.9389 29.25H24.1854C23.4804 29.25 22.8521 28.8113 22.6202 28.1582L21.8573 26H14.5812L13.8173 28.1582C13.7043 28.4772 13.4929 28.7537 13.2124 28.9494C12.9319 29.1451 12.5963 29.2501 12.2521 29.25H10.4986C9.35885 29.25 8.55971 28.148 8.9334 27.0918L14.4922 11.3872C14.6615 10.9089 14.9785 10.4943 15.3991 10.2009C15.8196 9.90752 16.3229 9.74991 16.8389 9.75H19.5986C20.1148 9.74991 20.6182 9.90763 21.0387 10.2012C21.4593 10.4948 21.7762 10.9097 21.9453 11.3882L27.5031 27.0918C27.8768 28.148 27.0776 29.25 25.9389 29.25ZM43.8906 27.625C43.8906 28.5228 43.1495 29.25 42.2344 29.25H40.5781C40.0761 29.25 39.6423 29.0195 39.338 28.6731C38.4457 29.0448 37.4654 29.25 36.4375 29.25C32.3279 29.25 28.9844 25.9695 28.9844 21.9375C28.9844 17.9055 32.3279 14.625 36.4375 14.625C37.3132 14.625 38.1414 14.8007 38.9219 15.0739V11.375C38.9219 10.4772 39.663 9.75 40.5781 9.75H42.2344C43.1495 9.75 43.8906 10.4772 43.8906 11.375V27.625Z" fill="white" fill-opacity="0.35"/>
</svg>
