<svg width="48" height="29" viewBox="0 0 48 29" fill="none" xmlns="http://www.w3.org/2000/svg">
<path d="M48 5.05537V2.41667C48 1.08221 46.9253 0 45.6 0H2.4C1.07475 0 0 1.08221 0 2.41667V5.05537C1.395 5.55456 2.4 6.88221 2.4 8.45833C2.4 10.0345 1.395 11.3621 0 11.8613V19.3333H48V11.8613C46.605 11.3621 45.6 10.0345 45.6 8.45833C45.6 6.88221 46.605 5.55456 48 5.05537ZM16.8 14.5H12V4.83333H16.8V14.5ZM26.4 14.5H21.6V4.83333H26.4V14.5ZM36 14.5H31.2V4.83333H36V14.5ZM0 29H4.8V26.9859C4.8 26.3183 5.337 25.7775 6 25.7775C6.663 25.7775 7.2 26.3183 7.2 26.9859V29H16.8V26.9859C16.8 26.3183 17.337 25.7775 18 25.7775C18.663 25.7775 19.2 26.3183 19.2 26.9859V29H28.8V26.9859C28.8 26.3183 29.337 25.7775 30 25.7775C30.663 25.7775 31.2 26.3183 31.2 26.9859V29H40.8V26.9859C40.8 26.3183 41.337 25.7775 42 25.7775C42.663 25.7775 43.2 26.3183 43.2 26.9859V29H48V21.75H0V29Z" fill="white" fill-opacity="0.35"/>
</svg>
