<svg width="51" height="38" viewBox="0 0 51 38" fill="none" xmlns="http://www.w3.org/2000/svg">
<path d="M46.2188 38H4.78125C2.14061 38 0 35.8734 0 33.25V4.75C0 2.12661 2.14061 0 4.78125 0H46.2188C48.8594 0 51 2.12661 51 4.75V33.25C51 35.8734 48.8594 38 46.2188 38ZM11.1562 5.54167C8.07553 5.54167 5.57812 8.02275 5.57812 11.0833C5.57812 14.1439 8.07553 16.625 11.1562 16.625C14.237 16.625 16.7344 14.1439 16.7344 11.0833C16.7344 8.02275 14.237 5.54167 11.1562 5.54167ZM6.375 31.6667H44.625V20.5833L35.9077 11.923C35.4409 11.4593 34.6841 11.4593 34.2172 11.923L20.7188 25.3333L15.1889 19.8397C14.7222 19.3759 13.9653 19.3759 13.4985 19.8397L6.375 26.9167V31.6667Z" fill="white" fill-opacity="0.35"/>
</svg>
