<svg width="42" height="42" viewBox="0 0 42 42" fill="none" xmlns="http://www.w3.org/2000/svg">
<path d="M37.5 0H4.5C2.01562 0 0 2.01562 0 4.5V37.5C0 39.9844 2.01562 42 4.5 42H37.5C39.9844 42 42 39.9844 42 37.5V4.5C42 2.01562 39.9844 0 37.5 0ZM15 31.5C15 32.3288 14.3287 33 13.5 33H10.5C9.67125 33 9 32.3288 9 31.5V19.5C9 18.6712 9.67125 18 10.5 18H13.5C14.3287 18 15 18.6712 15 19.5V31.5ZM24 31.5C24 32.3288 23.3288 33 22.5 33H19.5C18.6712 33 18 32.3288 18 31.5V10.5C18 9.67125 18.6712 9 19.5 9H22.5C23.3288 9 24 9.67125 24 10.5V31.5ZM33 31.5C33 32.3288 32.3288 33 31.5 33H28.5C27.6712 33 27 32.3288 27 31.5V25.5C27 24.6712 27.6712 24 28.5 24H31.5C32.3288 24 33 24.6712 33 25.5V31.5Z" fill="white" fill-opacity="0.35"/>
</svg>
