<svg width="42" height="42" viewBox="0 0 42 42" fill="none" xmlns="http://www.w3.org/2000/svg">
<path d="M13.125 23.625H8.53125C8.16867 23.625 7.875 23.3313 7.875 22.9688V21.6562C7.875 21.2937 8.16867 21 8.53125 21H13.125V15.75H8.53125C8.16867 15.75 7.875 15.4563 7.875 15.0938V13.7812C7.875 13.4187 8.16867 13.125 8.53125 13.125H13.125V7.875H8.53125C8.16867 7.875 7.875 7.58133 7.875 7.21875V5.90625C7.875 5.54367 8.16867 5.25 8.53125 5.25H13.125V2.625C13.125 1.17551 11.9495 0 10.5 0H2.625C1.17551 0 0 1.17551 0 2.625V39.375C0 39.6022 0.0746484 39.8048 0.128789 40.0148L13.125 27.0195V23.625ZM39.375 28.875H36.75V33.4688C36.75 33.8313 36.4563 34.125 36.0938 34.125H34.7812C34.4187 34.125 34.125 33.8313 34.125 33.4688V28.875H28.875V33.4688C28.875 33.8313 28.5813 34.125 28.2188 34.125H26.9062C26.5437 34.125 26.25 33.8313 26.25 33.4688V28.875H21V33.4688C21 33.8313 20.7063 34.125 20.3438 34.125H19.0312C18.6687 34.125 18.375 33.8313 18.375 33.4688V28.875H14.9814L1.98516 41.8712C2.19516 41.9254 2.39859 42 2.625 42H39.375C40.8245 42 42 40.8245 42 39.375V31.5C42 30.0505 40.8245 28.875 39.375 28.875Z" fill="white" fill-opacity="0.35"/>
</svg>
