<svg width="42" height="46" viewBox="0 0 42 46" fill="none" xmlns="http://www.w3.org/2000/svg">
<path d="M0.0101749 44.3917C-0.0929462 45.2452 0.600777 45.9909 1.50074 45.9909L4.52875 45.9999C5.2881 45.9999 5.92558 45.4698 6.0287 44.7511C6.09432 44.3108 6.19744 43.7538 6.34743 43.1249H35.6244C35.7744 43.7448 35.8963 44.3108 35.9526 44.7511C36.0557 45.4698 36.6932 46.0089 37.4525 45.9999L40.4805 45.9909C41.3805 45.9909 42.0836 45.2452 41.9711 44.3917C41.5398 40.9866 39.5712 32.8019 30.8246 25.7312C29.1747 26.8453 27.3466 27.9054 25.3405 28.9117C25.9217 29.325 26.4092 29.7562 26.9341 30.1875H14.9721C16.9689 28.5613 19.3782 26.989 22.3499 25.5695C38.4837 17.8879 41.4461 5.9118 41.9898 1.60831C42.0929 0.754795 41.3992 0.009095 40.4993 0.009095L37.4619 0.000110667C36.7025 0.000110667 36.0651 0.530186 35.9619 1.24893C35.8963 1.68917 35.7932 2.24619 35.6432 2.8751H6.35681C6.20681 2.24619 6.10369 1.69815 6.03807 1.24893C5.93495 0.530186 5.29747 -0.00887367 4.53813 0.000110667L1.51012 0.009095C0.610152 0.009095 -0.0929462 0.754795 0.0101749 1.60831C0.497656 5.46258 2.94444 15.4352 15.0002 23C2.95381 30.5648 0.497656 40.5374 0.0101749 44.3917ZM21 19.7297C18.647 18.4989 16.6502 17.1782 14.9721 15.8125H27.0185C25.3498 17.1782 23.353 18.5078 21 19.7297ZM33.2902 8.62507C32.7464 9.55944 32.0902 10.5208 31.3215 11.5001H10.6879C9.9098 10.5208 9.25357 9.55944 8.71922 8.62507H33.2902ZM8.70984 37.3749C9.25357 36.4406 9.9098 35.4792 10.6785 34.4999H31.2465C32.0246 35.4792 32.6902 36.4406 33.2339 37.3749H8.70984Z" fill="white" fill-opacity="0.35"/>
</svg>
