<svg width="52" height="42" viewBox="0 0 52 42" fill="none" xmlns="http://www.w3.org/2000/svg">
<path d="M52 21.6562V20.3438C52 19.6186 51.4182 19.0312 50.7 19.0312H27.95V15.75H33.8C35.2357 15.75 36.4 14.5745 36.4 13.125V2.625C36.4 1.17551 35.2357 0 33.8 0H18.2C16.7643 0 15.6 1.17551 15.6 2.625V13.125C15.6 14.5745 16.7643 15.75 18.2 15.75H24.05V19.0312H1.3C0.58175 19.0312 0 19.6186 0 20.3438V21.6562C0 22.3814 0.58175 22.9688 1.3 22.9688H9.75V26.25H5.2C3.76431 26.25 2.6 27.4255 2.6 28.875V39.375C2.6 40.8245 3.76431 42 5.2 42H18.2C19.6357 42 20.8 40.8245 20.8 39.375V28.875C20.8 27.4255 19.6357 26.25 18.2 26.25H13.65V22.9688H38.35V26.25H33.8C32.3643 26.25 31.2 27.4255 31.2 28.875V39.375C31.2 40.8245 32.3643 42 33.8 42H46.8C48.2357 42 49.4 40.8245 49.4 39.375V28.875C49.4 27.4255 48.2357 26.25 46.8 26.25H42.25V22.9688H50.7C51.4182 22.9688 52 22.3814 52 21.6562ZM20.8 10.5V5.25H31.2V10.5H20.8ZM15.6 36.75H7.8V31.5H15.6V36.75ZM44.2 36.75H36.4V31.5H44.2V36.75Z" fill="white" fill-opacity="0.35"/>
</svg>
