<svg width="41" height="45" viewBox="0 0 41 45" fill="none" xmlns="http://www.w3.org/2000/svg">
<path d="M38.6379 9.66388L23.4478 0.797596C21.6257 -0.265865 19.3734 -0.265865 17.5513 0.797596L2.36208 9.66388C1.8752 9.94776 1.87795 10.6544 2.36757 10.9348L20.5 21.318L38.6334 10.9348C39.123 10.6544 39.1257 9.94864 38.6379 9.66388ZM39.9045 13.5864L21.9643 23.8589V43.5303C21.9643 44.6623 23.1897 45.3681 24.1653 44.7985L38.0906 36.6705C39.8917 35.6194 41 33.6876 41 31.5993V14.2236C41 13.6602 40.3923 13.3069 39.9045 13.5864ZM0 14.2236V31.5993C0 33.6884 1.10828 35.6194 2.90935 36.6705L16.8347 44.7977C17.8112 45.3672 19.0357 44.6623 19.0357 43.5294V23.8589L1.09547 13.5864C0.607679 13.3069 0 13.6602 0 14.2236Z" fill="white" fill-opacity="0.35"/>
</svg>
