<svg width="45" height="45" viewBox="0 0 45 45" fill="none" xmlns="http://www.w3.org/2000/svg">
<path d="M38.5714 32.1429C38.5363 32.1429 38.5041 32.1529 38.469 32.1529L34.5315 25.5917C35.0407 24.6706 35.3571 23.627 35.3571 22.5C35.3571 21.373 35.0417 20.3294 34.5315 19.4083L38.469 12.8471C38.5041 12.8481 38.5363 12.8571 38.5714 12.8571C42.1222 12.8571 45 9.97935 45 6.42857C45 2.87779 42.1222 0 38.5714 0C36.1979 0 34.1478 1.30078 33.0348 3.21429H11.9652C10.8522 1.30078 8.80212 0 6.42857 0C2.87779 0 0 2.87779 0 6.42857C0 8.80212 1.30078 10.8522 3.21429 11.9652V33.0338C1.30078 34.1478 0 36.1979 0 38.5714C0 42.1222 2.87779 45 6.42857 45C8.80212 45 10.8522 43.6992 11.9652 41.7857H33.0338C34.1478 43.6992 36.1969 45 38.5704 45C42.1212 45 44.999 42.1222 44.999 38.5714C45 35.0206 42.1222 32.1429 38.5714 32.1429ZM9.64286 33.0348V11.9652C10.6055 11.4058 11.4058 10.6055 11.9652 9.64286H32.8942L29.031 16.0815C28.9959 16.0805 28.9637 16.0714 28.9286 16.0714C25.3778 16.0714 22.5 18.9492 22.5 22.5C22.5 26.0508 25.3778 28.9286 28.9286 28.9286C28.9637 28.9286 28.9959 28.9185 29.031 28.9185L32.8942 35.3571H11.9652C11.4061 34.3943 10.6057 33.5939 9.64286 33.0348ZM27.3214 22.5C27.3214 21.6141 28.0426 20.8929 28.9286 20.8929C29.8145 20.8929 30.5357 21.6141 30.5357 22.5C30.5357 23.3859 29.8145 24.1071 28.9286 24.1071C28.0426 24.1071 27.3214 23.3859 27.3214 22.5ZM40.1786 6.42857C40.1786 7.31451 39.4574 8.03572 38.5714 8.03572C37.6855 8.03572 36.9643 7.31451 36.9643 6.42857C36.9643 5.54263 37.6855 4.82143 38.5714 4.82143C39.4574 4.82143 40.1786 5.54263 40.1786 6.42857ZM6.42857 4.82143C7.31451 4.82143 8.03572 5.54263 8.03572 6.42857C8.03572 7.31451 7.31451 8.03572 6.42857 8.03572C5.54263 8.03572 4.82143 7.31451 4.82143 6.42857C4.82143 5.54263 5.54263 4.82143 6.42857 4.82143ZM4.82143 38.5714C4.82143 37.6855 5.54263 36.9643 6.42857 36.9643C7.31451 36.9643 8.03572 37.6855 8.03572 38.5714C8.03572 39.4574 7.31451 40.1786 6.42857 40.1786C5.54263 40.1786 4.82143 39.4574 4.82143 38.5714ZM38.5714 40.1786C37.6855 40.1786 36.9643 39.4574 36.9643 38.5714C36.9643 37.6855 37.6855 36.9643 38.5714 36.9643C39.4574 36.9643 40.1786 37.6855 40.1786 38.5714C40.1786 39.4574 39.4574 40.1786 38.5714 40.1786Z" fill="white" fill-opacity="0.35"/>
</svg>
