<svg width="48" height="48" viewBox="0 0 48 48" fill="none" xmlns="http://www.w3.org/2000/svg">
<path d="M17.3026 24.5534C17.6056 25.8656 16.166 26.8629 15.0462 26.1629L11.2272 23.7765L6.45841 31.4079C5.21304 33.4006 6.65247 36 9.0011 36H13.875C14.4963 36 15 36.5037 15 37.125V40.875C15 41.4962 14.4963 42 13.875 42H9.01076C1.94819 42 -2.36131 34.2142 1.37875 28.23L6.14332 20.5999L2.32535 18.2141C1.19275 17.5066 1.48478 15.7803 2.78275 15.4806L13.1175 13.0946C13.9248 12.9083 14.7301 13.4116 14.9164 14.2187L17.3026 24.5534ZM26.5427 7.40516L30.4135 13.5998L26.5941 15.9864C25.4644 16.6921 25.7504 18.4194 27.0515 18.7199L37.3863 21.1058C38.1993 21.2933 39.0002 20.7835 39.1852 19.9818L41.5712 9.64709C41.8709 8.34922 40.4471 7.32969 39.3148 8.03759L35.5004 10.4211L31.632 4.22591C28.1144 -1.40217 19.8936 -1.41511 16.368 4.22591L14.6839 6.92272C14.3549 7.4496 14.5152 8.14344 15.0421 8.47269L18.222 10.4597C18.7489 10.789 19.443 10.6287 19.7722 10.1019L21.4561 7.40722C22.6478 5.50026 25.391 5.5626 26.5427 7.40516ZM46.6207 28.23L44.0412 24.0989C43.7121 23.5717 43.0178 23.4113 42.4908 23.7407L39.3163 25.7243C38.7894 26.0536 38.6291 26.7476 38.9584 27.2746L41.5425 31.4101C42.7853 33.3986 41.3497 36.0001 38.9985 36.0001H30V31.5019C30 30.1694 28.3836 29.4972 27.4394 30.4413L19.9394 37.9395C19.3535 38.5252 19.3535 39.475 19.9394 40.0607L27.4394 47.5597C28.3771 48.4976 30 47.8406 30 46.4989V42H38.9887C46.0457 42 50.3639 34.219 46.6207 28.23Z" fill="white" fill-opacity="0.35"/>
</svg>
