<svg width="60" height="48" viewBox="0 0 60 48" fill="none" xmlns="http://www.w3.org/2000/svg">
<path d="M3 21H6V39H3C2.6059 39.0005 2.21558 38.9232 1.85139 38.7726C1.4872 38.622 1.1563 38.401 0.877627 38.1224C0.598957 37.8437 0.377997 37.5128 0.2274 37.1486C0.0768036 36.7844 -0.000470871 36.3941 2.15863e-06 36V24C-0.000470871 23.6059 0.0768036 23.2156 0.2274 22.8514C0.377997 22.4872 0.598957 22.1563 0.877627 21.8776C1.1563 21.599 1.4872 21.378 1.85139 21.2274C2.21558 21.0768 2.6059 20.9995 3 21ZM51 16.5V42C50.9984 43.5908 50.3658 45.116 49.2409 46.2409C48.116 47.3658 46.5908 47.9984 45 48H15C13.4092 47.9984 11.884 47.3658 10.7591 46.2409C9.63422 45.116 9.00157 43.5908 9 42V16.5C8.99968 15.515 9.19346 14.5396 9.57025 13.6295C9.94705 12.7194 10.4995 11.8925 11.196 11.196C11.8925 10.4995 12.7194 9.94705 13.6295 9.57025C14.5396 9.19345 15.515 8.99968 16.5 9H27V3C27 2.20435 27.3161 1.44129 27.8787 0.87868C28.4413 0.316071 29.2044 0 30 0C30.7957 0 31.5587 0.316071 32.1213 0.87868C32.6839 1.44129 33 2.20435 33 3V9H43.5C44.485 8.99968 45.4604 9.19345 46.3705 9.57025C47.2806 9.94705 48.1075 10.4995 48.804 11.196C49.5005 11.8925 50.0529 12.7194 50.4297 13.6295C50.8065 14.5396 51.0003 15.515 51 16.5ZM24.75 24C24.75 23.2583 24.5301 22.5333 24.118 21.9166C23.706 21.2999 23.1203 20.8193 22.4351 20.5355C21.7498 20.2516 20.9958 20.1774 20.2684 20.3221C19.541 20.4667 18.8728 20.8239 18.3484 21.3484C17.8239 21.8728 17.4668 22.541 17.3221 23.2684C17.1774 23.9958 17.2516 24.7498 17.5355 25.4351C17.8193 26.1203 18.2999 26.706 18.9166 27.118C19.5333 27.5301 20.2583 27.75 21 27.75C21.4925 27.75 21.9801 27.6531 22.4351 27.4646C22.8901 27.2762 23.3035 27 23.6517 26.6517C24 26.3035 24.2762 25.8901 24.4646 25.4351C24.6531 24.9801 24.75 24.4925 24.75 24ZM24 36H18V39H24V36ZM33 36H27V39H33V36ZM42.75 24C42.75 23.2583 42.5301 22.5333 42.118 21.9166C41.706 21.2999 41.1203 20.8193 40.4351 20.5355C39.7498 20.2516 38.9958 20.1774 38.2684 20.3221C37.541 20.4667 36.8728 20.8239 36.3484 21.3484C35.8239 21.8728 35.4668 22.541 35.3221 23.2684C35.1774 23.9958 35.2516 24.7498 35.5355 25.4351C35.8193 26.1203 36.2999 26.706 36.9166 27.118C37.5333 27.5301 38.2583 27.75 39 27.75C39.4925 27.75 39.9801 27.6531 40.4351 27.4646C40.8901 27.2762 41.3035 27 41.6517 26.6517C42 26.3035 42.2762 25.8901 42.4646 25.4351C42.6531 24.9801 42.75 24.4925 42.75 24ZM42 36H36V39H42V36ZM60 24V36C60.0005 36.3941 59.9232 36.7844 59.7726 37.1486C59.622 37.5128 59.401 37.8437 59.1224 38.1224C58.8437 38.401 58.5128 38.622 58.1486 38.7726C57.7844 38.9232 57.3941 39.0005 57 39H54V21H57C57.3941 20.9995 57.7844 21.0768 58.1486 21.2274C58.5128 21.378 58.8437 21.599 59.1224 21.8776C59.401 22.1563 59.622 22.4872 59.7726 22.8514C59.9232 23.2156 60.0005 23.6059 60 24Z" fill="white" fill-opacity="0.35"/>
</svg>
