<svg width="38" height="44" viewBox="0 0 38 44" fill="none" xmlns="http://www.w3.org/2000/svg">
<path d="M33.9286 19.25H31.8929V13.0625C31.8929 5.86094 26.108 0 19 0C11.892 0 6.10714 5.86094 6.10714 13.0625V19.25H4.07143C1.82366 19.25 0 21.0977 0 23.375V39.875C0 42.1523 1.82366 44 4.07143 44H33.9286C36.1763 44 38 42.1523 38 39.875V23.375C38 21.0977 36.1763 19.25 33.9286 19.25ZM25.1071 19.25H12.8929V13.0625C12.8929 9.65078 15.6326 6.875 19 6.875C22.3674 6.875 25.1071 9.65078 25.1071 13.0625V19.25Z" fill="white" fill-opacity="0.35"/>
</svg>
