<svg width="56" height="34" viewBox="0 0 56 34" fill="none" xmlns="http://www.w3.org/2000/svg">
<path d="M53.2 0H2.8C1.25387 0 0 1.2688 0 2.83333V31.1667C0 32.7312 1.25387 34 2.8 34H16.8192C19.0234 34 21.0219 32.6922 21.9257 30.6584L24.353 25.2007C25.0434 23.6477 26.4556 22.6667 28 22.6667C29.5444 22.6667 30.9566 23.6477 31.647 25.2007L34.0742 30.6584C34.9781 32.6922 36.9775 34 39.1807 34H53.2C54.7461 34 56 32.7312 56 31.1667V2.83333C56 1.2688 54.7461 0 53.2 0ZM14 21.25C10.9069 21.25 8.4 18.7133 8.4 15.5833C8.4 12.4534 10.9069 9.91667 14 9.91667C17.0931 9.91667 19.6 12.4534 19.6 15.5833C19.6 18.7133 17.0931 21.25 14 21.25ZM42 21.25C38.9069 21.25 36.4 18.7133 36.4 15.5833C36.4 12.4534 38.9069 9.91667 42 9.91667C45.0931 9.91667 47.6 12.4534 47.6 15.5833C47.6 18.7133 45.0931 21.25 42 21.25Z" fill="white" fill-opacity="0.35"/>
</svg>
