<svg width="38" height="34" viewBox="0 0 38 34" fill="none" xmlns="http://www.w3.org/2000/svg">
<path d="M12.6216 19.125H9.21622C8.58906 19.125 8.08108 19.6005 8.08108 20.1875V32.9375C8.08108 33.5245 8.58906 34 9.21622 34H12.6216C13.2488 34 13.7568 33.5245 13.7568 32.9375V20.1875C13.7568 19.6005 13.2488 19.125 12.6216 19.125ZM4.54054 25.5H1.13514C0.507973 25.5 0 25.9755 0 26.5625V32.9375C0 33.5245 0.507973 34 1.13514 34H4.54054C5.1677 34 5.67568 33.5245 5.67568 32.9375V26.5625C5.67568 25.9755 5.1677 25.5 4.54054 25.5ZM20.7027 12.75H17.2973C16.6701 12.75 16.1622 13.2255 16.1622 13.8125V32.9375C16.1622 33.5245 16.6701 34 17.2973 34H20.7027C21.3299 34 21.8378 33.5245 21.8378 32.9375V13.8125C21.8378 13.2255 21.3299 12.75 20.7027 12.75ZM28.7838 6.375H25.3784C24.7512 6.375 24.2432 6.85047 24.2432 7.4375V32.9375C24.2432 33.5245 24.7512 34 25.3784 34H28.7838C29.4109 34 29.9189 33.5245 29.9189 32.9375V7.4375C29.9189 6.85047 29.4109 6.375 28.7838 6.375ZM36.8649 0H33.4595C32.8323 0 32.3243 0.475469 32.3243 1.0625V32.9375C32.3243 33.5245 32.8323 34 33.4595 34H36.8649C37.492 34 38 33.5245 38 32.9375V1.0625C38 0.475469 37.492 0 36.8649 0Z" fill="white" fill-opacity="0.35"/>
</svg>
