<svg width="73" height="73" viewBox="0 0 73 73" fill="none" xmlns="http://www.w3.org/2000/svg">
<path d="M65.1609 49.106C61.5893 52.0046 57.6569 54.407 53.3923 56.0993L61.1458 69.5286L68.8381 72.8135C70.2368 73.4109 71.8166 72.4984 71.9991 70.9885L73 62.6835L65.1609 49.106ZM71.2192 35.624C71.9121 34.5305 71.4886 33.0591 70.3566 32.4317L66.3543 30.2118C65.2878 29.6201 63.986 30.0037 63.323 31.0274C57.4615 40.0852 47.3725 45.6243 36.5007 45.6243C33.0888 45.6243 29.7666 45.0183 26.6042 43.9804L36.2084 27.3446C36.3082 27.3475 36.3995 27.3746 36.4993 27.3746C36.5991 27.3746 36.6918 27.3475 36.7902 27.3446L44.0746 39.9626C48.5274 38.6851 52.5667 36.2913 55.8532 32.9878L48.469 20.1973C49.5312 18.254 50.1885 16.0583 50.1885 13.6873C50.1885 6.12791 44.0604 0 36.5007 0C28.9411 0 22.8129 6.12791 22.8129 13.6873C22.8129 16.0583 23.4702 18.254 24.531 20.1973L14.7928 37.0655C13.0034 35.4102 11.3765 33.5595 9.99064 31.505C9.30768 30.4927 7.99879 30.1334 6.94226 30.7451L2.98564 33.0363C1.86638 33.6836 1.47001 35.1606 2.18149 36.2399C4.40147 39.6104 7.12762 42.5432 10.1632 45.0825L0 62.6849L1.00092 70.99C1.18342 72.4999 2.76322 73.4123 4.16194 72.8149L11.8542 69.53L21.9489 52.0459C26.5386 53.791 31.4562 54.7492 36.5007 54.7492C50.6234 54.7492 63.7166 47.4764 71.2192 35.624ZM36.5007 9.12486C39.0201 9.12486 41.0633 11.168 41.0633 13.6873C41.0633 16.2066 39.0201 18.2497 36.5007 18.2497C33.9813 18.2497 31.9381 16.2066 31.9381 13.6873C31.9381 11.168 33.9813 9.12486 36.5007 9.12486Z" fill="#3EA6DE"/>
</svg>
