<svg width="75" height="61" viewBox="0 0 75 61" fill="none" xmlns="http://www.w3.org/2000/svg">
<path d="M75 31.4531V29.5469C75 28.4937 74.1609 27.6406 73.125 27.6406H40.3125V22.875H48.75C50.8207 22.875 52.5 21.1677 52.5 19.0625V3.8125C52.5 1.70729 50.8207 0 48.75 0H26.25C24.1793 0 22.5 1.70729 22.5 3.8125V19.0625C22.5 21.1677 24.1793 22.875 26.25 22.875H34.6875V27.6406H1.875C0.839062 27.6406 0 28.4937 0 29.5469V31.4531C0 32.5063 0.839062 33.3594 1.875 33.3594H14.0625V38.125H7.5C5.4293 38.125 3.75 39.8323 3.75 41.9375V57.1875C3.75 59.2927 5.4293 61 7.5 61H26.25C28.3207 61 30 59.2927 30 57.1875V41.9375C30 39.8323 28.3207 38.125 26.25 38.125H19.6875V33.3594H55.3125V38.125H48.75C46.6793 38.125 45 39.8323 45 41.9375V57.1875C45 59.2927 46.6793 61 48.75 61H67.5C69.5707 61 71.25 59.2927 71.25 57.1875V41.9375C71.25 39.8323 69.5707 38.125 67.5 38.125H60.9375V33.3594H73.125C74.1609 33.3594 75 32.5063 75 31.4531ZM30 15.25V7.625H45V15.25H30ZM22.5 53.375H11.25V45.75H22.5V53.375ZM63.75 53.375H52.5V45.75H63.75V53.375Z" fill="#3EA6DE"/>
</svg>
