<svg width="79" height="65" viewBox="0 0 79 65" fill="none" xmlns="http://www.w3.org/2000/svg">
<path d="M60.2402 24.3743H41.4777V31.4843C41.4777 36.5248 37.4907 40.6257 32.5903 40.6257C27.6898 40.6257 23.7028 36.5248 23.7028 31.4843V16.0455L15.6917 20.9971C13.3094 22.4572 11.8528 25.1107 11.8528 27.9547V33.9601L1.97781 39.8258C0.0892214 40.9431 -0.564996 43.4316 0.533596 45.3741L10.4086 62.9713C11.4948 64.9139 13.9142 65.5741 15.8028 64.4568L28.5662 56.8771H45.4277C49.7851 56.8771 53.3277 53.2332 53.3277 48.7514H55.3027C57.4876 48.7514 59.2527 46.9358 59.2527 44.6885V36.5628H60.2402C61.8819 36.5628 63.2027 35.2043 63.2027 33.5157V27.4214C63.2027 25.7328 61.8819 24.3743 60.2402 24.3743ZM78.4719 19.6259L68.5969 2.02868C67.5107 0.0861282 65.0913 -0.574084 63.2027 0.543198L50.4393 8.12294H37.824C36.3427 8.12294 34.8985 8.55462 33.6395 9.35449L29.5043 12.008C28.344 12.7444 27.6528 14.0522 27.6528 15.4488V31.4843C27.6528 34.2902 29.8623 36.5628 32.5903 36.5628C35.3182 36.5628 37.5277 34.2902 37.5277 31.4843V20.3115H60.2402C64.0544 20.3115 67.1527 23.4983 67.1527 27.4214V31.0399L77.0277 25.1742C78.9163 24.0442 79.5581 21.5684 78.4719 19.6259Z" fill="#3EA6DE"/>
</svg>
