<svg width="73" height="68" viewBox="0 0 73 68" fill="none" xmlns="http://www.w3.org/2000/svg">
<path d="M73 14.5715V17C73 17.3221 72.8718 17.6309 72.6436 17.8587C72.4155 18.0864 72.106 18.2143 71.7833 18.2143H68.1333V20.0357C68.1333 21.0416 67.3162 21.8572 66.3083 21.8572H6.69167C5.68381 21.8572 4.86667 21.0416 4.86667 20.0357V18.2143H1.21667C0.893987 18.2143 0.584523 18.0864 0.356353 17.8587C0.128184 17.6309 0 17.3221 0 17V14.5715C1.74005e-06 14.3312 0.0713998 14.0964 0.205161 13.8967C0.338921 13.697 0.529034 13.5413 0.751444 13.4495L36.0348 0.0923268C36.3327 -0.0307756 36.6673 -0.0307756 36.9652 0.0923268L72.2486 13.4495C72.471 13.5413 72.6611 13.697 72.7948 13.8967C72.9286 14.0964 73 14.3312 73 14.5715ZM69.35 60.7143H3.65C1.63414 60.7143 0 62.3452 0 64.3571V66.7857C0 67.1078 0.128184 67.4166 0.356353 67.6443C0.584523 67.8721 0.893987 68 1.21667 68H71.7833C72.106 68 72.4155 67.8721 72.6436 67.6443C72.8718 67.4166 73 67.1078 73 66.7857V64.3571C73 62.3452 71.3659 60.7143 69.35 60.7143ZM12.1667 24.2857V53.4286H6.69167C5.68381 53.4286 4.86667 54.2441 4.86667 55.25V58.2857H68.1333V55.25C68.1333 54.2441 67.3162 53.4286 66.3083 53.4286H60.8333V24.2857H51.1V53.4286H41.3667V24.2857H31.6333V53.4286H21.9V24.2857H12.1667Z" fill="#3EA6DE"/>
</svg>
