<svg width="71" height="80" viewBox="0 0 71 80" fill="none" xmlns="http://www.w3.org/2000/svg">
<path d="M35.1806 35C34.1866 35.0002 33.215 35.2937 32.3887 35.8432C31.5624 36.3928 30.9184 37.1738 30.5382 38.0874C30.158 39.0011 30.0586 40.0064 30.2527 40.9762C30.4468 41.946 30.9255 42.8368 31.6285 43.536C32.3314 44.2351 33.2269 44.7112 34.2018 44.904C35.1767 45.0968 36.1871 44.9978 37.1054 44.6193C38.0237 44.2408 38.8085 43.5999 39.3607 42.7777C39.9129 41.9555 40.2076 40.9889 40.2076 40C40.205 38.6745 39.6744 37.4041 38.7322 36.467C37.79 35.5298 36.5129 35.0023 35.1806 35ZM68.8177 20C67.1094 16.9531 62.4554 12.0703 50.5559 13.457C47.1786 5.44922 42.0337 0 35.1806 0C28.3274 0 23.1829 5.44922 19.8053 13.457C7.90575 12.0898 3.25202 16.9531 1.54372 20C-1.0287 24.5898 -0.812744 31.4258 5.49039 40C-0.812744 48.5742 -1.0287 55.4102 1.54372 60C6.11892 68.1836 17.508 66.8164 19.8053 66.543C23.1829 74.5508 28.3274 80 35.1806 80C42.0337 80 47.1786 74.5508 50.5559 66.543C52.8535 66.8164 64.2425 68.1836 68.8177 60C71.3902 55.4102 71.1742 48.5742 64.8708 40C71.1742 31.4258 71.3902 24.5898 68.8177 20ZM9.9478 55C9.31957 53.8672 9.92817 51.1328 12.3043 47.4609C13.3843 48.4766 14.5233 49.4727 15.7408 50.4492C15.996 52.5977 16.369 54.6875 16.8009 56.7188C12.9328 56.8555 10.5371 56.0352 9.9478 55ZM15.7408 29.5508C14.5233 30.5273 13.3843 31.5234 12.3043 32.5391C9.92817 28.8672 9.31957 26.1328 9.9478 25C10.4782 24.043 12.5202 23.2031 15.8979 23.2031C16.1727 23.2031 16.5065 23.2617 16.8009 23.2617C16.3494 25.3516 15.996 27.4414 15.7408 29.5508ZM35.1806 10C36.6729 10 38.676 12.1094 40.5021 15.8203C38.7349 16.4062 36.9677 17.0703 35.1806 17.832C33.3937 17.0703 31.6266 16.4062 29.859 15.8203C31.6854 12.1094 33.6882 10 35.1806 10ZM35.1806 70C33.6882 70 31.6854 67.8906 29.859 64.1797C31.6266 63.5938 33.3937 62.9297 35.1806 62.168C36.9677 62.9297 38.7349 63.5938 40.5021 64.1797C38.676 67.8906 36.6729 70 35.1806 70ZM35.1806 52.5C32.6955 52.5 30.2663 51.7669 28.2001 50.3934C26.1339 49.0199 24.5234 47.0676 23.5725 44.7835C22.6215 42.4995 22.3727 39.9861 22.8575 37.5614C23.3423 35.1366 24.5389 32.9093 26.2961 31.1612C28.0533 29.413 30.2921 28.2225 32.7294 27.7402C35.1666 27.2579 37.693 27.5054 39.9888 28.4515C42.2847 29.3976 44.247 30.9998 45.6276 33.0554C47.0082 35.111 47.7451 37.5277 47.7451 40C47.7451 43.3152 46.4213 46.4946 44.065 48.8388C41.7087 51.183 38.5129 52.5 35.1806 52.5ZM60.4134 55C59.844 56.0352 57.4287 56.8555 53.5602 56.7188C53.9924 54.6875 54.3654 52.5977 54.6207 50.4492C55.8382 49.4727 56.9771 48.4766 58.0569 47.4609C60.433 51.1328 61.0416 53.8672 60.4134 55ZM58.0569 32.5391C56.9771 31.5234 55.8381 30.5273 54.6207 29.5508C54.3654 27.4414 54.0121 25.3516 53.5602 23.2617C53.8547 23.2617 54.1887 23.2031 54.4636 23.2031C57.8409 23.2031 59.8833 24.043 60.4134 25C61.0416 26.1328 60.433 28.8672 58.0569 32.5391Z" fill="#3EA6DE"/>
</svg>
