<svg width="69" height="58" viewBox="0 0 69 58" fill="none" xmlns="http://www.w3.org/2000/svg">
<path d="M18.8146 0.473831C18.6643 0.323643 18.4858 0.204476 18.2892 0.123166C18.0927 0.0418554 17.8819 0 17.6691 0C17.4562 0 17.2455 0.0418554 17.0489 0.123166C16.8523 0.204476 16.6738 0.323643 16.5236 0.473831L7.94167 8.9732L4.88249 6.00359C4.73225 5.8534 4.55372 5.73424 4.35715 5.65293C4.16058 5.57162 3.94983 5.52976 3.73698 5.52976C3.52414 5.52976 3.31339 5.57162 3.11681 5.65293C2.92024 5.73424 2.74172 5.8534 2.59147 6.00359L0.475651 8.11401C0.324886 8.26367 0.205262 8.44151 0.123639 8.63733C0.0420161 8.83315 0 9.0431 0 9.25513C0 9.46716 0.0420161 9.67711 0.123639 9.87293C0.205262 10.0687 0.324886 10.2466 0.475651 10.3963L6.88915 16.7597C7.20928 17.0629 7.63408 17.2319 8.07577 17.2319C8.51745 17.2319 8.94225 17.0629 9.26238 16.7597L11.3634 14.6627L21.0935 4.97121C21.3966 4.66897 21.5679 4.25983 21.5702 3.83257C21.5725 3.4053 21.4055 2.99438 21.1056 2.68896L18.8146 0.473831ZM18.8146 21.8451C18.6643 21.6949 18.4858 21.5758 18.2892 21.4944C18.0927 21.4131 17.8819 21.3713 17.6691 21.3713C17.4562 21.3713 17.2455 21.4131 17.0489 21.4944C16.8523 21.5758 16.6738 21.6949 16.5236 21.8451L7.94167 30.3995L4.88249 27.4326C4.73225 27.2824 4.55372 27.1632 4.35715 27.0819C4.16058 27.0006 3.94983 26.9588 3.73698 26.9588C3.52414 26.9588 3.31339 27.0006 3.11681 27.0819C2.92024 27.1632 2.74172 27.2824 2.59147 27.4326L0.475651 29.539C0.324886 29.6886 0.205262 29.8665 0.123639 30.0623C0.0420161 30.2581 0 30.4681 0 30.6801C0 30.8921 0.0420161 31.1021 0.123639 31.2979C0.205262 31.4937 0.324886 31.6716 0.475651 31.8212L6.87298 38.1981C7.19289 38.5012 7.61746 38.6702 8.05892 38.6702C8.50038 38.6702 8.92496 38.5012 9.24486 38.1981L11.3607 36.0917L21.0908 26.3962C21.3928 26.0961 21.5635 25.6892 21.5658 25.2643C21.568 24.8393 21.4017 24.4307 21.1029 24.1274L18.8146 21.8451ZM8.62494 45.112C5.05499 45.112 2.07667 47.9984 2.07667 51.556C2.07667 55.1136 5.05769 58 8.62494 58C10.3406 58 11.9859 57.3211 13.199 56.1126C14.4122 54.9041 15.0937 53.265 15.0937 51.556C15.0937 49.8469 14.4122 48.2079 13.199 46.9994C11.9859 45.7909 10.3406 45.112 8.62494 45.112ZM66.8438 47.26H28.0312C27.4593 47.26 26.9109 47.4863 26.5065 47.8891C26.1021 48.292 25.875 48.8383 25.875 49.408V53.704C25.875 54.2737 26.1021 54.82 26.5065 55.2229C26.9109 55.6257 27.4593 55.852 28.0312 55.852H66.8438C67.4156 55.852 67.9641 55.6257 68.3685 55.2229C68.7728 54.82 69 54.2737 69 53.704V49.408C69 48.8383 68.7728 48.292 68.3685 47.8891C67.9641 47.4863 67.4156 47.26 66.8438 47.26ZM66.8438 4.29996H28.0312C27.4593 4.29996 26.9109 4.52627 26.5065 4.92909C26.1021 5.33192 25.875 5.87828 25.875 6.44796V10.744C25.875 11.3136 26.1021 11.86 26.5065 12.2628C26.9109 12.6657 27.4593 12.892 28.0312 12.892H66.8438C67.4156 12.892 67.9641 12.6657 68.3685 12.2628C68.7728 11.86 69 11.3136 69 10.744V6.44796C69 5.87828 68.7728 5.33192 68.3685 4.92909C67.9641 4.52627 67.4156 4.29996 66.8438 4.29996ZM66.8438 25.78H28.0312C27.4593 25.78 26.9109 26.0063 26.5065 26.4091C26.1021 26.8119 25.875 27.3583 25.875 27.928V32.224C25.875 32.7937 26.1021 33.34 26.5065 33.7428C26.9109 34.1457 27.4593 34.372 28.0312 34.372H66.8438C67.4156 34.372 67.9641 34.1457 68.3685 33.7428C68.7728 33.34 69 32.7937 69 32.224V27.928C69 27.3583 68.7728 26.8119 68.3685 26.4091C67.9641 26.0063 67.4156 25.78 66.8438 25.78Z" fill="#3EA6DE"/>
</svg>
