<svg width="576" height="350" viewBox="0 0 576 350" fill="none" xmlns="http://www.w3.org/2000/svg">
<path d="M0.500002 292V57.9997L58.5 -0.000267982H213.5L271.5 57.9997V292L213.5 350H58.5L0.500002 292ZM181.5 292L203.5 270V79.9997L181.5 57.9997H90.5L68.5 79.9997V270L90.5 292H181.5ZM316.672 296V241H384.672V275.5L401.172 292H491.172L507.672 275.5V219L491.672 203H391.672V145H491.672L507.672 129V74.4998L491.172 57.9997H404.172L387.672 74.4998V109H319.672V53.9998L373.672 -0.000267982H521.672L575.672 53.9998V149L550.172 174L575.672 199.5V296L521.672 350H370.672L316.672 296Z" fill="#3EA6DE" fill-opacity="0.2"/>
</svg>
