<svg width="313" height="418" viewBox="0 0 313 418" fill="none" xmlns="http://www.w3.org/2000/svg">
<path d="M157.886 221.409C165.059 221.409 170.52 223.614 174.432 228.022C182.257 236.921 182.42 254.719 174.269 264.026C170.275 268.598 164.57 270.965 157.071 270.965H135.144V221.409H157.886ZM307.294 85.7227L227.414 5.71484C223.746 2.04102 218.774 0 213.557 0H208.667V104.5H313V99.5199C313 94.3766 310.962 89.3965 307.294 85.7227ZM182.583 111.031V0H19.5625C8.72161 0 0 8.73555 0 19.5938V398.406C0 409.264 8.72161 418 19.5625 418H293.438C304.278 418 313 409.264 313 398.406V130.625H202.146C191.386 130.625 182.583 121.808 182.583 111.031ZM225.784 245.902C225.784 319.623 153.403 309.255 135.226 309.255V355.953C135.226 361.341 130.824 365.75 125.445 365.75H100.339C94.9596 365.75 90.5581 361.341 90.5581 355.953V192.835C90.5581 187.447 94.9596 183.038 100.339 183.038H166.363C202.635 183.038 225.784 209.816 225.784 245.902Z" fill="#3EA6DE" fill-opacity="0.2"/>
</svg>
