<svg width="444" height="357" viewBox="0 0 444 357" fill="none" xmlns="http://www.w3.org/2000/svg">
<path d="M432.9 312.375H377.4V79.1042C377.4 60.0968 362.464 44.6244 344.1 44.6244H266.4V89.2495H333V357H432.9C439.033 357 444 352.008 444 345.844V323.531C444 317.367 439.033 312.375 432.9 312.375ZM216.617 0.70356L83.4165 35.3856C73.5306 37.9585 66.6 47.2043 66.6 57.8167V312.375H11.1C4.96725 312.375 0 317.367 0 323.531V345.844C0 352.008 4.96725 357 11.1 357H244.2V23.1346C244.2 8.08762 230.63 -2.95012 216.617 0.70356ZM183.15 200.812C173.958 200.812 166.5 190.82 166.5 178.5C166.5 166.179 173.958 156.187 183.15 156.187C192.342 156.187 199.8 166.179 199.8 178.5C199.8 190.82 192.342 200.812 183.15 200.812Z" fill="#3EA6DE" fill-opacity="0.2"/>
</svg>
