<svg width="476" height="448" viewBox="0 0 476 448" fill="none" xmlns="http://www.w3.org/2000/svg">
<path d="M461.817 251.999H254.189L392.464 390.277C397.749 395.562 406.447 395.991 411.881 390.872C445.743 358.969 469.035 315.963 475.869 267.618C477.042 259.341 470.173 251.999 461.817 251.999ZM447.965 195.299C440.755 90.7701 357.228 7.24172 252.701 0.0316404C244.721 -0.519616 238.001 6.20921 238.001 14.2068V209.999H433.799C441.797 209.999 448.517 203.279 447.965 195.299ZM196.001 251.999V44.3684C196.001 36.012 188.66 29.1432 180.391 30.3157C76.1179 45.0509 -3.58558 136.148 0.124412 245.323C3.9394 357.447 100.478 449.393 212.652 447.984C256.752 447.433 297.501 433.223 331.005 409.457C337.917 404.557 338.372 394.381 332.378 388.387L196.001 251.999Z" fill="#3EA6DE" fill-opacity="0.2"/>
</svg>
