<svg width="480" height="448" viewBox="0 0 480 448" fill="none" xmlns="http://www.w3.org/2000/svg">
<path d="M480 96.0003V112C480 114.122 479.157 116.157 477.657 117.657C476.157 119.157 474.122 120 472 120H448V132C448 138.627 442.627 144 436 144H44C37.373 144 32 138.627 32 132V120H8C5.87827 120 3.84344 119.157 2.34315 117.657C0.842854 116.157 0 114.122 0 112V96.0003C1.14414e-05 94.4176 0.469478 92.8704 1.349 91.5546C2.22852 90.2388 3.47858 89.2135 4.941 88.6083L236.941 0.608271C238.9 -0.202757 241.1 -0.202757 243.059 0.608271L475.059 88.6083C476.521 89.2135 477.771 90.2388 478.651 91.5546C479.531 92.8704 480 94.4176 480 96.0003ZM456 400H24C10.745 400 0 410.745 0 424V440C0 442.122 0.842854 444.157 2.34315 445.657C3.84344 447.157 5.87827 448 8 448H472C474.122 448 476.157 447.157 477.657 445.657C479.157 444.157 480 442.122 480 440V424C480 410.745 469.255 400 456 400ZM80 160V352H44C37.373 352 32 357.373 32 364V384H448V364C448 357.373 442.627 352 436 352H400V160H336V352H272V160H208V352H144V160H80Z" fill="#3EA6DE" fill-opacity="0.2"/>
</svg>
