<svg width="1726" height="1375" viewBox="0 0 1726 1375" fill="none" xmlns="http://www.w3.org/2000/svg">
<g clip-path="url(#clip0_26_323)">
<path d="M506.671 0L359.282 293.036L681.65 455.178L534.383 747.97L797.843 880.483L1092.5 294.655L506.671 0Z" fill="white" fill-opacity="0.2"/>
<path d="M1285.39 758.539L1432.66 465.747L1139.62 318.358L844.97 904.186L1430.8 1198.84L1578.19 905.806L1285.39 758.539Z" fill="white" fill-opacity="0.2"/>
<path d="M468.052 769.939L615.339 477.107L337.091 337.156L-104.851 1215.82L173.397 1355.77L320.663 1062.98L628.243 1217.68L775.632 924.644L468.052 769.939Z" fill="white" fill-opacity="0.2"/>
<path d="M819.996 946.957L1112.83 1094.24L965.44 1387.28L672.607 1239.99L819.996 946.957Z" fill="white" fill-opacity="0.2"/>
</g>
<defs>
<clipPath id="clip0_26_323">
<rect width="1364.26" height="1364.26" fill="white" transform="translate(506.671) rotate(26.7011)"/>
</clipPath>
</defs>
</svg>
