<svg width="270" height="72" viewBox="0 0 270 72" fill="none" xmlns="http://www.w3.org/2000/svg">
<g clip-path="url(#clip0_13_107)">
<path d="M0 0V17.3112H18.8629V34.608H34.2789V0H0Z" fill="#F78F31"/>
<path d="M54.183 17.2968V0H37.0365V34.608H71.3154V17.2968H54.183Z" fill="#3EA6DE"/>
<path d="M16.2813 37.2168V19.9176H0V71.8248H16.2813V54.528H34.2789V37.2168H16.2813Z" fill="#8254A2"/>
<path d="M36.8748 37.2168H54.0095V54.528H36.8748V37.2168Z" fill="#010101"/>
<path d="M54.183 54.6888H71.3154V72H54.183V54.6888Z" fill="#010101"/>
<path d="M86.2322 16.9416H98.3463V19.5672H93.7512V31.7976H90.8368V19.5672H86.2322V16.9416Z" fill="#010101"/>
<path d="M97.0769 26.5368C97.0888 23.3304 99.3423 21.0792 102.43 21.0792C105.29 21.0792 107.468 23.016 107.468 26.1984C107.468 26.5824 107.434 26.976 107.37 27.3912H99.851C100.058 28.6272 101.303 29.4912 102.625 29.4912C103.655 29.4912 104.544 29.0088 105.214 28.0152L107.187 29.5032C106.212 31.1448 104.391 32.0304 102.561 32.0304C99.2235 32.0304 97.0793 29.6016 97.0793 26.5392L97.0769 26.5368ZM104.876 25.5072C104.736 24.336 103.783 23.4408 102.461 23.4408C101.139 23.4408 100.046 24.3168 99.8938 25.5072H104.879H104.876Z" fill="#010101"/>
<path d="M109.015 26.5248C109.015 23.4504 111.475 21.0432 114.563 21.0432C116.513 21.0432 118.443 22.0704 119.396 24.0408L117.283 25.3968C116.677 24.1824 115.614 23.6256 114.606 23.6256C112.937 23.6256 111.777 24.9168 111.777 26.58C111.777 28.2432 112.968 29.4792 114.561 29.4792C115.688 29.4792 116.632 28.944 117.335 27.6624L119.339 29.0856C118.386 31.0008 116.446 32.0184 114.497 32.0184C111.376 32.0184 109.015 29.5896 109.015 26.5272V26.5248Z" fill="#010101"/>
<path d="M121.483 31.7976V16.3944H124.267V22.4112C124.809 21.744 125.893 21.0768 127.388 21.0768C129.773 21.0768 131.472 22.6728 131.472 25.2V31.7976H128.689V25.9224C128.689 24.468 127.769 23.6808 126.566 23.6808C125.363 23.6808 124.269 24.468 124.269 25.9224V31.7976H121.486H121.483Z" fill="#010101"/>
<path d="M134.399 31.7976V21.2952H137.042L137.097 22.5096C137.639 21.7776 138.754 21.0768 140.303 21.0768C142.709 21.0768 144.409 22.6728 144.409 25.2V31.7976H141.635V25.9224C141.635 24.468 140.703 23.6808 139.479 23.6808C138.254 23.6808 137.17 24.468 137.17 25.9224V31.7976H134.396H134.399Z" fill="#010101"/>
<path d="M148.709 16.308C149.653 16.308 150.314 16.9632 150.314 17.928C150.314 18.8928 149.653 19.536 148.709 19.536C147.765 19.536 147.116 18.8808 147.116 17.928C147.116 16.9752 147.765 16.308 148.709 16.308ZM147.333 31.7976V21.2952H150.116V31.7976H147.333Z" fill="#010101"/>
<path d="M152.413 26.5248C152.413 23.4504 154.873 21.0432 157.961 21.0432C159.91 21.0432 161.841 22.0704 162.794 24.0408L160.681 25.3968C160.074 24.1824 159.012 23.6256 158.004 23.6256C156.335 23.6256 155.175 24.9168 155.175 26.58C155.175 28.2432 156.366 29.4792 157.959 29.4792C159.086 29.4792 160.029 28.944 160.733 27.6624L162.737 29.0856C161.784 31.0008 159.844 32.0184 157.895 32.0184C154.773 32.0184 152.413 29.5896 152.413 26.5272V26.5248Z" fill="#010101"/>
<path d="M167.634 16.3944V25.212L171.426 21.2952H175.12L170.57 25.7688L175.217 31.7856H171.782L168.706 27.5856L167.634 28.668V31.7856H164.881V16.3944H167.634Z" fill="#010101"/>
<path d="M180.808 21.0768C183.668 21.0768 185.845 23.0136 185.845 26.196C185.845 26.58 185.812 26.9736 185.748 27.3888H178.229C178.436 28.6248 179.681 29.4888 181.003 29.4888C182.032 29.4888 182.922 29.0064 183.592 28.0128L185.565 29.5008C184.59 31.1424 182.769 32.028 180.939 32.028C177.601 32.028 175.457 29.5992 175.457 26.5368C175.469 23.3304 177.723 21.0792 180.811 21.0792L180.808 21.0768ZM183.257 25.5072C183.116 24.336 182.163 23.4408 180.842 23.4408C179.52 23.4408 178.426 24.3168 178.274 25.5072H183.259H183.257ZM179.779 19.6224L181.481 15.9696H184.645L182.12 19.6224H179.779Z" fill="#010101"/>
<path d="M204.587 31.7976H193.74V16.9416H196.666V29.2488H204.587V31.7976Z" fill="#010101"/>
<path d="M203.458 21.2952H206.534L209.254 28.9416L211.94 21.2952H215.028L210.119 33.2304C209.284 35.244 208.006 36.3912 205.773 36.3912C204.939 36.3912 204.245 36.1608 203.791 35.9328L204.138 33.6792C204.494 33.8328 204.984 33.9528 205.45 33.9528C206.61 33.9528 207.433 33.132 207.758 31.8096L203.456 21.2976L203.458 21.2952Z" fill="#010101"/>
<path d="M215.655 26.5248C215.655 23.4504 218.116 21.0432 221.204 21.0432C223.153 21.0432 225.083 22.0704 226.036 24.0408L223.923 25.3968C223.317 24.1824 222.254 23.6256 221.246 23.6256C219.578 23.6256 218.418 24.9168 218.418 26.58C218.418 28.2432 219.609 29.4792 221.201 29.4792C222.328 29.4792 223.272 28.944 223.975 27.6624L225.979 29.0856C225.026 31.0008 223.086 32.0184 221.137 32.0184C218.016 32.0184 215.655 29.5896 215.655 26.5272V26.5248Z" fill="#010101"/>
<path d="M227.28 26.5368C227.292 23.3304 229.545 21.0792 232.633 21.0792C235.493 21.0792 237.67 23.016 237.67 26.1984C237.67 26.5824 237.637 26.976 237.573 27.3912H230.054C230.261 28.6272 231.506 29.4912 232.828 29.4912C233.857 29.4912 234.746 29.0088 235.417 28.0152L237.39 29.5032C236.415 31.1448 234.594 32.0304 232.764 32.0304C229.426 32.0304 227.282 29.6016 227.282 26.5392L227.28 26.5368ZM235.082 25.5072C234.941 24.336 233.988 23.4408 232.666 23.4408C231.345 23.4408 230.251 24.3168 230.099 25.5072H235.084H235.082Z" fill="#010101"/>
<path d="M239.848 27.9576V21.2952H242.622V27.2352C242.622 28.6896 243.554 29.4672 244.766 29.4672C245.979 29.4672 247.096 28.6896 247.096 27.2352V21.2952H249.87V31.7976H247.227L247.172 30.6384C246.63 31.3824 245.515 32.0712 243.944 32.0712C241.538 32.0712 239.848 30.4848 239.848 27.9576Z" fill="#010101"/>
<path d="M252.934 31.7976V21.2952H255.578L255.632 22.5096C256.162 21.7776 257.289 21.0768 258.818 21.0768C260.346 21.0768 261.699 21.744 262.307 22.9368C263.044 21.8208 264.366 21.0768 265.916 21.0768C268.3 21.0768 270 22.6416 270 25.2V31.7976H267.216V25.9224C267.216 24.468 266.327 23.6808 265.136 23.6808C263.945 23.6808 262.849 24.4368 262.849 25.8576V31.7976H260.066V25.9224C260.066 24.468 259.167 23.6808 257.995 23.6808C256.823 23.6808 255.72 24.468 255.72 25.9224V31.7976H252.937H252.934Z" fill="#010101"/>
<path d="M90.7607 40.9464V46.9512H97.9326V40.9464H100.847V55.8024H97.9326V49.5024H90.7607V55.8024H87.8344V40.9464H90.7607Z" fill="#010101"/>
<path d="M104.173 45.3H106.859L106.914 46.7328C107.444 45.6384 108.452 45.0816 109.624 45.0816C110.242 45.0816 110.762 45.2448 110.979 45.3216L110.762 47.8272C110.479 47.7288 110.025 47.5872 109.474 47.5872C108.25 47.5872 106.961 48.2544 106.961 50.4216V55.8048H104.177V45.3024L104.173 45.3Z" fill="#010101"/>
<path d="M116.719 45.0816C118.367 45.0816 119.418 45.6384 120.1 46.416L120.155 45.3H122.886V55.8024H120.155L120.1 54.6864C119.406 55.4952 118.248 56.0208 116.719 56.0208C113.772 56.0208 111.682 53.712 111.682 50.5392C111.682 47.3664 113.774 45.0816 116.719 45.0816ZM114.475 50.5296C114.475 52.1928 115.636 53.5056 117.292 53.5056C118.949 53.5056 120.121 52.1928 120.121 50.5296C120.121 48.8664 118.93 47.5968 117.292 47.5968C115.655 47.5968 114.475 48.8328 114.475 50.5296Z" fill="#010101"/>
<path d="M130.239 45.0816C131.907 45.0816 132.979 45.6936 133.674 46.5696V40.3992H136.405V55.8024H133.674L133.619 54.6864C132.925 55.4952 131.767 56.0208 130.239 56.0208C127.291 56.0208 125.201 53.712 125.201 50.5392C125.201 47.3664 127.293 45.0816 130.239 45.0816ZM127.997 50.5296C127.997 52.1928 129.157 53.5056 130.814 53.5056C132.471 53.5056 133.643 52.1928 133.643 50.5296C133.643 48.8664 132.452 47.5968 130.814 47.5968C129.176 47.5968 127.997 48.8328 127.997 50.5296Z" fill="#010101"/>
<path d="M138.711 50.5392C138.723 47.3328 140.976 45.0816 144.064 45.0816C146.924 45.0816 149.101 47.0184 149.101 50.2008C149.101 50.5848 149.068 50.9784 149.004 51.3936H141.485C141.692 52.6296 142.937 53.4936 144.259 53.4936C145.288 53.4936 146.177 53.0112 146.848 52.0176L148.821 53.5056C147.846 55.1472 146.025 56.0328 144.195 56.0328C140.857 56.0328 138.713 53.604 138.713 50.5416L138.711 50.5392ZM146.51 49.512C146.37 48.3408 145.417 47.4456 144.095 47.4456C142.773 47.4456 141.68 48.3216 141.528 49.512H146.513H146.51Z" fill="#010101"/>
<path d="M150.649 50.5296C150.649 47.4552 153.109 45.048 156.197 45.048C158.147 45.048 160.077 46.0752 161.03 48.0456L158.917 49.4016C158.311 48.1872 157.248 47.6304 156.24 47.6304C154.571 47.6304 153.411 48.9216 153.411 50.5848C153.411 52.248 154.602 53.484 156.195 53.484C157.322 53.484 158.265 52.9488 158.969 51.6672L160.973 53.0904C160.02 55.0056 158.08 56.0232 156.131 56.0232C153.009 56.0232 150.649 53.5944 150.649 50.532V50.5296Z" fill="#010101"/>
<path d="M168.697 55.8024V40.9464H171.623V47.6856L177.811 40.9464H181.559L175.892 46.9848L181.895 55.8024H178.341L173.812 48.9552L171.623 51.3072V55.8024H168.697Z" fill="#010101"/>
<path d="M183.278 45.3H185.964L186.019 46.7328C186.549 45.6384 187.557 45.0816 188.729 45.0816C189.347 45.0816 189.868 45.2448 190.084 45.3216L189.868 47.8272C189.585 47.7288 189.131 47.5872 188.579 47.5872C187.355 47.5872 186.067 48.2544 186.067 50.4216V55.8048H183.283V45.3024L183.278 45.3Z" fill="#010101"/>
<path d="M190.785 50.5392C190.785 47.3448 192.877 45.0816 195.823 45.0816C197.47 45.0816 198.521 45.6384 199.203 46.416L199.258 45.3H201.989V55.8024H199.258L199.203 54.6864C198.509 55.4952 197.351 56.0208 195.823 56.0208C192.875 56.0208 190.785 53.712 190.785 50.5392ZM193.581 50.5296C193.581 52.1928 194.741 53.5056 196.398 53.5056C198.055 53.5056 199.227 52.1928 199.227 50.5296C199.227 48.8664 198.036 47.5968 196.398 47.5968C194.76 47.5968 193.581 48.8328 193.581 50.5296ZM195.423 43.6272L197.125 39.9744H200.289L197.765 43.6272H195.423Z" fill="#010101"/>
<path d="M207.827 55.8024H205.053V40.3992H207.827V55.8024Z" fill="#010101"/>
<path d="M210.121 50.5512C210.121 47.4552 212.494 45.0816 215.679 45.0816C218.864 45.0816 221.237 47.4552 221.237 50.5512C221.237 53.6472 218.874 56.0208 215.679 56.0208C212.484 56.0208 210.121 53.6568 210.121 50.5512ZM215.679 53.4816C217.315 53.4816 218.475 52.2336 218.475 50.5488C218.475 48.864 217.315 47.628 215.679 47.628C214.044 47.628 212.884 48.876 212.884 50.5488C212.884 52.2216 214.053 53.4816 215.679 53.4816Z" fill="#010101"/>
<path d="M221.974 45.3H224.922L227.632 53.0568L230.33 45.3H233.277L229.322 55.8024H225.941L221.976 45.3H221.974Z" fill="#010101"/>
<path d="M239.372 45.0816C242.232 45.0816 244.41 47.0184 244.41 50.2008C244.41 50.5848 244.376 50.9784 244.312 51.3936H236.793C237 52.6296 238.246 53.4936 239.567 53.4936C240.597 53.4936 241.486 53.0112 242.156 52.0176L244.129 53.5056C243.155 55.1472 241.334 56.0328 239.503 56.0328C236.166 56.0328 234.021 53.604 234.021 50.5416C234.033 47.3352 236.287 45.084 239.375 45.084L239.372 45.0816ZM241.821 49.512C241.681 48.3408 240.727 47.4456 239.406 47.4456C238.084 47.4456 236.99 48.3216 236.838 49.512H241.823H241.821ZM238.343 43.6272L240.045 39.9744H243.209L240.685 43.6272H238.343Z" fill="#010101"/>
</g>
<defs>
<clipPath id="clip0_13_107">
<rect width="270" height="72" fill="white"/>
</clipPath>
</defs>
</svg>
