<svg width="32" height="29" viewBox="0 0 32 29" fill="none" xmlns="http://www.w3.org/2000/svg">
<path d="M31.1111 4.4873C31.6022 4.4873 32 4.09574 32 3.6123V1.8623C32 1.37887 31.6022 0.987305 31.1111 0.987305H0.888889C0.397778 0.987305 0 1.37887 0 1.8623V3.6123C0 4.09574 0.397778 4.4873 0.888889 4.4873H1.77667V25.4873H0.888889C0.397778 25.4873 0 25.8789 0 26.3623V28.1123C0 28.5957 0.397778 28.9873 0.888889 28.9873H14.2222V24.6123C14.2222 24.1311 14.6222 23.7373 15.1111 23.7373H16.8889C17.3778 23.7373 17.7778 24.1311 17.7778 24.6123V28.9873H31.1111C31.6022 28.9873 32 28.5957 32 28.1123V26.3623C32 25.8789 31.6022 25.4873 31.1111 25.4873H30.2222V4.4873H31.1111ZM14.2222 6.9373C14.2222 6.58731 14.5778 6.2373 14.9333 6.2373H17.0667C17.4222 6.2373 17.7778 6.58731 17.7778 6.9373V9.0373C17.7778 9.3873 17.4222 9.7373 17.0667 9.7373H14.9333C14.5778 9.7373 14.2222 9.3873 14.2222 9.0373V6.9373ZM14.2222 12.1873C14.2222 11.8373 14.5778 11.4873 14.9333 11.4873H17.0667C17.4222 11.4873 17.7778 11.8373 17.7778 12.1873V14.2873C17.7778 14.6373 17.4222 14.9873 17.0667 14.9873H14.9333C14.5778 14.9873 14.2222 14.6373 14.2222 14.2873V12.1873ZM7.11111 6.9373C7.11111 6.58731 7.46667 6.2373 7.82222 6.2373H9.95556C10.3111 6.2373 10.6667 6.58731 10.6667 6.9373V9.0373C10.6667 9.3873 10.3111 9.7373 9.95556 9.7373H7.82222C7.46667 9.7373 7.11111 9.3873 7.11111 9.0373V6.9373ZM9.95556 14.9873H7.82222C7.46667 14.9873 7.11111 14.6373 7.11111 14.2873V12.1873C7.11111 11.8373 7.46667 11.4873 7.82222 11.4873H9.95556C10.3111 11.4873 10.6667 11.8373 10.6667 12.1873V14.2873C10.6667 14.6373 10.3111 14.9873 9.95556 14.9873ZM10.6667 21.9873C10.6667 19.0878 13.0544 16.7373 16 16.7373C18.9456 16.7373 21.3333 19.0878 21.3333 21.9873H10.6667ZM24.8889 14.2873C24.8889 14.6373 24.5333 14.9873 24.1778 14.9873H22.0444C21.6889 14.9873 21.3333 14.6373 21.3333 14.2873V12.1873C21.3333 11.8373 21.6889 11.4873 22.0444 11.4873H24.1778C24.5333 11.4873 24.8889 11.8373 24.8889 12.1873V14.2873ZM24.8889 9.0373C24.8889 9.3873 24.5333 9.7373 24.1778 9.7373H22.0444C21.6889 9.7373 21.3333 9.3873 21.3333 9.0373V6.9373C21.3333 6.58731 21.6889 6.2373 22.0444 6.2373H24.1778C24.5333 6.2373 24.8889 6.58731 24.8889 6.9373V9.0373Z" fill="#3EA6DE"/>
</svg>
