<svg width="50" height="51" viewBox="0 0 50 51" fill="none" xmlns="http://www.w3.org/2000/svg">
<rect x="4.57764e-05" y="0.987305" width="50" height="50" fill="white"/>
<g clip-path="url(#clip0_26_263)">
<path d="M29.9998 21.0054C29.1811 15.9643 27.2501 12.4248 25.0029 12.4248C22.7556 12.4248 20.8246 15.9643 20.0059 21.0054H29.9998ZM19.5824 26.4248C19.5824 27.678 19.6502 28.8804 19.7687 30.0377H30.2313C30.3499 28.8804 30.4177 27.678 30.4177 26.4248C30.4177 25.1716 30.3499 23.9692 30.2313 22.8119H19.7687C19.6502 23.9692 19.5824 25.1716 19.5824 26.4248ZM37.916 21.0054C36.3011 17.1724 33.0319 14.2087 28.9948 13.0119C30.3725 14.92 31.3211 17.7934 31.818 21.0054H37.916ZM21.0053 13.0119C16.9738 14.2087 13.699 17.1724 12.0898 21.0054H18.1878C18.679 17.7934 19.6276 14.92 21.0053 13.0119ZM38.5201 22.8119H32.0438C32.1624 23.9974 32.2301 25.2111 32.2301 26.4248C32.2301 27.6385 32.1624 28.8522 32.0438 30.0377H38.5145C38.825 28.8804 39 27.678 39 26.4248C39 25.1716 38.825 23.9692 38.5201 22.8119ZM17.7756 26.4248C17.7756 25.2111 17.8434 23.9974 17.9619 22.8119H11.4856C11.1807 23.9692 11 25.1716 11 26.4248C11 27.678 11.1807 28.8804 11.4856 30.0377H17.9563C17.8434 28.8522 17.7756 27.6385 17.7756 26.4248ZM20.0059 31.8442C20.8246 36.8853 22.7556 40.4248 25.0029 40.4248C27.2501 40.4248 29.1811 36.8853 29.9998 31.8442H20.0059ZM29.0004 39.8377C33.0319 38.6409 36.3068 35.6772 37.9216 31.8442H31.8236C31.3267 35.0563 30.3781 37.9296 29.0004 39.8377ZM12.0898 31.8442C13.7046 35.6772 16.9738 38.6409 21.0109 39.8377C19.6332 37.9296 18.6847 35.0563 18.1878 31.8442H12.0898Z" fill="#F78F31"/>
</g>
<defs>
<clipPath id="clip0_26_263">
<rect width="28" height="28" fill="white" transform="translate(11 11.9873)"/>
</clipPath>
</defs>
</svg>
