<svg width="50" height="51" viewBox="0 0 50 51" fill="none" xmlns="http://www.w3.org/2000/svg">
<rect x="4.57764e-05" y="0.987305" width="50" height="50" fill="white"/>
<path d="M38.4696 21.9653C38.6829 21.7947 39 21.9543 39 22.2239V33.4779C39 34.9362 37.8243 36.1194 36.375 36.1194H13.625C12.1758 36.1194 11 34.9362 11 33.4779V22.2294C11 21.9543 11.3118 21.8002 11.5305 21.9708C12.7555 22.9283 14.3797 24.1445 19.9579 28.2224C21.1118 29.0699 23.0586 30.8529 25 30.8419C26.9524 30.8584 28.9375 29.0368 30.0477 28.2224C35.6258 24.1445 37.2446 22.9228 38.4696 21.9653ZM25 29.0754C26.2688 29.0974 28.0954 27.4684 29.0141 26.7971C36.2711 21.4975 36.8235 21.0353 38.4969 19.7145C38.8141 19.4669 39 19.0816 39 18.6744V17.6288C39 16.1705 37.8243 14.9873 36.375 14.9873H13.625C12.1758 14.9873 11 16.1705 11 17.6288V18.6744C11 19.0816 11.186 19.4614 11.5032 19.7145C13.1766 21.0298 13.729 21.4975 20.986 26.7971C21.9047 27.4684 23.7313 29.0974 25 29.0754Z" fill="#F78F31"/>
</svg>
