<svg width="50" height="51" viewBox="0 0 50 51" fill="none" xmlns="http://www.w3.org/2000/svg">
<rect x="4.57764e-05" y="0.987305" width="50" height="50" fill="white"/>
<path d="M36.2871 32.6532L30.8182 30.3094C30.5846 30.2098 30.325 30.1889 30.0784 30.2496C29.8318 30.3104 29.6116 30.4496 29.451 30.6463L27.0291 33.6054C23.2281 31.8132 20.1692 28.7543 18.3771 24.9533L21.3361 22.5314C21.5333 22.3711 21.6728 22.1509 21.7336 21.9042C21.7944 21.6575 21.7731 21.3978 21.6731 21.1642L19.3293 15.6954C19.2195 15.4436 19.0252 15.2381 18.7801 15.1142C18.535 14.9903 18.2543 14.9558 17.9865 15.0166L12.9083 16.1885C12.65 16.2482 12.4197 16.3936 12.2547 16.601C12.0898 16.8084 12 17.0656 12 17.3307C12 29.8553 22.1516 39.9873 34.6567 39.9873C34.9218 39.9875 35.1791 39.8978 35.3866 39.7328C35.5942 39.5678 35.7396 39.3374 35.7993 39.0791L36.9712 34.0009C37.0317 33.7317 36.9964 33.4499 36.8716 33.204C36.7467 32.958 36.54 32.7632 36.2871 32.6532Z" fill="#F78F31"/>
</svg>
