<svg width="50" height="51" viewBox="0 0 50 51" fill="none" xmlns="http://www.w3.org/2000/svg">
<rect x="6.10352e-05" y="0.987305" width="50" height="50" fill="white"/>
<path d="M40.1112 15.4873C40.6023 15.4873 41.0001 15.0957 41.0001 14.6123V12.8623C41.0001 12.3789 40.6023 11.9873 40.1112 11.9873H9.88895C9.39784 11.9873 9.00006 12.3789 9.00006 12.8623V14.6123C9.00006 15.0957 9.39784 15.4873 9.88895 15.4873H10.7767V36.4873H9.88895C9.39784 36.4873 9.00006 36.8789 9.00006 37.3623V39.1123C9.00006 39.5957 9.39784 39.9873 9.88895 39.9873H23.2223V35.6123C23.2223 35.1311 23.6223 34.7373 24.1112 34.7373H25.889C26.3778 34.7373 26.7778 35.1311 26.7778 35.6123V39.9873H40.1112C40.6023 39.9873 41.0001 39.5957 41.0001 39.1123V37.3623C41.0001 36.8789 40.6023 36.4873 40.1112 36.4873H39.2223V15.4873H40.1112ZM23.2223 17.9373C23.2223 17.5873 23.5778 17.2373 23.9334 17.2373H26.0667C26.4223 17.2373 26.7778 17.5873 26.7778 17.9373V20.0373C26.7778 20.3873 26.4223 20.7373 26.0667 20.7373H23.9334C23.5778 20.7373 23.2223 20.3873 23.2223 20.0373V17.9373ZM23.2223 23.1873C23.2223 22.8373 23.5778 22.4873 23.9334 22.4873H26.0667C26.4223 22.4873 26.7778 22.8373 26.7778 23.1873V25.2873C26.7778 25.6373 26.4223 25.9873 26.0667 25.9873H23.9334C23.5778 25.9873 23.2223 25.6373 23.2223 25.2873V23.1873ZM16.1112 17.9373C16.1112 17.5873 16.4667 17.2373 16.8223 17.2373H18.9556C19.3112 17.2373 19.6667 17.5873 19.6667 17.9373V20.0373C19.6667 20.3873 19.3112 20.7373 18.9556 20.7373H16.8223C16.4667 20.7373 16.1112 20.3873 16.1112 20.0373V17.9373ZM18.9556 25.9873H16.8223C16.4667 25.9873 16.1112 25.6373 16.1112 25.2873V23.1873C16.1112 22.8373 16.4667 22.4873 16.8223 22.4873H18.9556C19.3112 22.4873 19.6667 22.8373 19.6667 23.1873V25.2873C19.6667 25.6373 19.3112 25.9873 18.9556 25.9873ZM19.6667 32.9873C19.6667 30.0878 22.0545 27.7373 25.0001 27.7373C27.9456 27.7373 30.3334 30.0878 30.3334 32.9873H19.6667ZM33.889 25.2873C33.889 25.6373 33.5334 25.9873 33.1778 25.9873H31.0445C30.6889 25.9873 30.3334 25.6373 30.3334 25.2873V23.1873C30.3334 22.8373 30.6889 22.4873 31.0445 22.4873H33.1778C33.5334 22.4873 33.889 22.8373 33.889 23.1873V25.2873ZM33.889 20.0373C33.889 20.3873 33.5334 20.7373 33.1778 20.7373H31.0445C30.6889 20.7373 30.3334 20.3873 30.3334 20.0373V17.9373C30.3334 17.5873 30.6889 17.2373 31.0445 17.2373H33.1778C33.5334 17.2373 33.889 17.5873 33.889 17.9373V20.0373Z" fill="#F78F31"/>
</svg>
