<svg width="28" height="28" viewBox="0 0 28 28" fill="none" xmlns="http://www.w3.org/2000/svg">
<path d="M18.9998 9.00545C18.1811 3.96432 16.25 0.424805 14.0028 0.424805C11.7556 0.424805 9.82456 3.96432 9.00585 9.00545H18.9998ZM8.58238 14.4248C8.58238 15.678 8.65013 16.8804 8.7687 18.0377H19.2313C19.3499 16.8804 19.4176 15.678 19.4176 14.4248C19.4176 13.1716 19.3499 11.9692 19.2313 10.8119H8.7687C8.65013 11.9692 8.58238 13.1716 8.58238 14.4248ZM26.9159 9.00545C25.3011 5.17239 22.0319 2.20868 17.9948 1.0119C19.3725 2.91997 20.321 5.79335 20.8179 9.00545H26.9159ZM10.0052 1.0119C5.97378 2.20868 2.69893 5.17239 1.08974 9.00545H7.18774C7.67897 5.79335 8.62755 2.91997 10.0052 1.0119ZM27.5201 10.8119H21.0438C21.1623 11.9974 21.2301 13.2111 21.2301 14.4248C21.2301 15.6385 21.1623 16.8522 21.0438 18.0377H27.5144C27.825 16.8804 28 15.678 28 14.4248C28 13.1716 27.825 11.9692 27.5201 10.8119ZM6.77556 14.4248C6.77556 13.2111 6.84332 11.9974 6.96189 10.8119H0.485582C0.180682 11.9692 0 13.1716 0 14.4248C0 15.678 0.180682 16.8804 0.485582 18.0377H6.95624C6.84332 16.8522 6.77556 15.6385 6.77556 14.4248ZM9.00585 19.8442C9.82456 24.8853 11.7556 28.4248 14.0028 28.4248C16.25 28.4248 18.1811 24.8853 18.9998 19.8442H9.00585ZM18.0004 27.8377C22.0319 26.6409 25.3067 23.6772 26.9216 19.8442H20.8236C20.3267 23.0563 19.3781 25.9296 18.0004 27.8377ZM1.08974 19.8442C2.70458 23.6772 5.97378 26.6409 10.0109 27.8377C8.63319 25.9296 7.68461 23.0563 7.18774 19.8442H1.08974Z" fill="#3EA6DE"/>
</svg>
