<svg width="464" height="448" viewBox="0 0 464 448" fill="none" xmlns="http://www.w3.org/2000/svg">
<path d="M450.174 251.999H247.78L382.57 390.277C387.722 395.562 396.2 395.991 401.497 390.872C434.506 358.969 457.211 315.963 463.872 267.618C465.015 259.341 458.32 251.999 450.174 251.999ZM436.672 195.299C429.644 90.7701 348.223 7.24172 246.33 0.0316404C238.552 -0.519616 232.001 6.20921 232.001 14.2068V209.999H422.863C430.659 209.999 437.21 203.279 436.672 195.299ZM191.06 251.999V44.3684C191.06 36.012 183.904 29.1432 175.844 30.3157C74.199 45.0509 -3.49518 136.148 0.121276 245.323C3.84009 357.447 97.9448 449.393 207.291 447.984C250.28 447.433 290.001 433.223 322.66 409.457C329.398 404.557 329.842 394.381 323.999 388.387L191.06 251.999Z" fill="#8254A2" fill-opacity="0.2"/>
</svg>
