<svg width="28" height="23" viewBox="0 0 28 23" fill="none" xmlns="http://www.w3.org/2000/svg">
<path d="M27.4695 7.96529C27.6828 7.79469 28 7.95429 28 8.22394V19.4779C28 20.9362 26.8242 22.1194 25.375 22.1194H2.625C1.17578 22.1194 0 20.9362 0 19.4779V8.22944C0 7.95429 0.311719 7.8002 0.530469 7.97079C1.75547 8.92834 3.37969 10.1445 8.95781 14.2224C10.1117 15.0699 12.0586 16.8529 14 16.8419C15.9523 16.8584 17.9375 15.0368 19.0477 14.2224C24.6258 10.1445 26.2445 8.92284 27.4695 7.96529ZM14 15.0754C15.2688 15.0974 17.0953 13.4684 18.0141 12.7971C25.2711 7.49752 25.8234 7.03526 27.4969 5.71451C27.8141 5.46686 28 5.08164 28 4.67441V3.62881C28 2.17048 26.8242 0.987305 25.375 0.987305H2.625C1.17578 0.987305 0 2.17048 0 3.62881V4.67441C0 5.08164 0.185937 5.46136 0.503125 5.71451C2.17656 7.02976 2.72891 7.49752 9.98594 12.7971C10.9047 13.4684 12.7312 15.0974 14 15.0754Z" fill="#3EA6DE"/>
</svg>
