<svg width="25" height="26" viewBox="0 0 25 26" fill="none" xmlns="http://www.w3.org/2000/svg">
<path d="M24.287 18.6532L18.8182 16.3094C18.5846 16.2098 18.3249 16.1889 18.0783 16.2496C17.8318 16.3104 17.6116 16.4496 17.451 16.6463L15.0291 19.6054C11.2281 17.8132 8.16919 14.7543 6.37706 10.9533L9.3361 8.53143C9.53321 8.37111 9.67272 8.15094 9.73352 7.90425C9.79431 7.65755 9.77307 7.39776 9.67302 7.16422L7.32923 1.69537C7.21942 1.44361 7.0252 1.23806 6.78007 1.11416C6.53494 0.990256 6.25426 0.955771 5.98643 1.01665L0.908219 2.18854C0.649996 2.24817 0.419609 2.39357 0.25466 2.60099C0.0897111 2.80842 -5.94839e-05 3.06564 2.95718e-08 3.33065C2.95718e-08 15.8553 10.1515 25.9873 22.6566 25.9873C22.9217 25.9875 23.1791 25.8978 23.3866 25.7328C23.5941 25.5678 23.7396 25.3374 23.7992 25.0791L24.9711 20.0009C25.0316 19.7317 24.9964 19.4499 24.8715 19.204C24.7467 18.958 24.54 18.7632 24.287 18.6532Z" fill="#3EA6DE"/>
</svg>
