<svg width="111" height="111" viewBox="0 0 111 111" fill="none" xmlns="http://www.w3.org/2000/svg">
<path d="M59.4643 47.5714H51.5357C50.4843 47.5714 49.476 47.9891 48.7325 48.7325C47.9891 49.476 47.5714 50.4843 47.5714 51.5357V59.4643C47.5714 60.5157 47.9891 61.524 48.7325 62.2675C49.476 63.0109 50.4843 63.4286 51.5357 63.4286H59.4643C60.5157 63.4286 61.524 63.0109 62.2675 62.2675C63.0109 61.524 63.4286 60.5157 63.4286 59.4643V51.5357C63.4286 50.4843 63.0109 49.476 62.2675 48.7325C61.524 47.9891 60.5157 47.5714 59.4643 47.5714ZM83.25 47.5714H75.3214C74.27 47.5714 73.2617 47.9891 72.5182 48.7325C71.7748 49.476 71.3571 50.4843 71.3571 51.5357V59.4643C71.3571 60.5157 71.7748 61.524 72.5182 62.2675C73.2617 63.0109 74.27 63.4286 75.3214 63.4286H83.25C84.3014 63.4286 85.3097 63.0109 86.0532 62.2675C86.7966 61.524 87.2143 60.5157 87.2143 59.4643V51.5357C87.2143 50.4843 86.7966 49.476 86.0532 48.7325C85.3097 47.9891 84.3014 47.5714 83.25 47.5714ZM107.036 47.5714H99.1071C98.0557 47.5714 97.0474 47.9891 96.304 48.7325C95.5605 49.476 95.1429 50.4843 95.1429 51.5357V59.4643C95.1429 60.5157 95.5605 61.524 96.304 62.2675C97.0474 63.0109 98.0557 63.4286 99.1071 63.4286H107.036C108.087 63.4286 109.095 63.0109 109.839 62.2675C110.582 61.524 111 60.5157 111 59.4643V51.5357C111 50.4843 110.582 49.476 109.839 48.7325C109.095 47.9891 108.087 47.5714 107.036 47.5714ZM35.6786 47.5714H27.75C26.6986 47.5714 25.6903 47.9891 24.9468 48.7325C24.2034 49.476 23.7857 50.4843 23.7857 51.5357V59.4643C23.7857 60.5157 24.2034 61.524 24.9468 62.2675C25.6903 63.0109 26.6986 63.4286 27.75 63.4286H35.6786C36.73 63.4286 37.7383 63.0109 38.4817 62.2675C39.2252 61.524 39.6429 60.5157 39.6429 59.4643V51.5357C39.6429 50.4843 39.2252 49.476 38.4817 48.7325C37.7383 47.9891 36.73 47.5714 35.6786 47.5714ZM59.4643 95.1429H51.5357C50.4843 95.1429 49.476 95.5605 48.7325 96.304C47.9891 97.0474 47.5714 98.0557 47.5714 99.1071V107.036C47.5714 108.087 47.9891 109.095 48.7325 109.839C49.476 110.582 50.4843 111 51.5357 111H59.4643C60.5157 111 61.524 110.582 62.2675 109.839C63.0109 109.095 63.4286 108.087 63.4286 107.036V99.1071C63.4286 98.0557 63.0109 97.0474 62.2675 96.304C61.524 95.5605 60.5157 95.1429 59.4643 95.1429ZM83.25 95.1429H75.3214C74.27 95.1429 73.2617 95.5605 72.5182 96.304C71.7748 97.0474 71.3571 98.0557 71.3571 99.1071V107.036C71.3571 108.087 71.7748 109.095 72.5182 109.839C73.2617 110.582 74.27 111 75.3214 111H83.25C84.3014 111 85.3097 110.582 86.0532 109.839C86.7966 109.095 87.2143 108.087 87.2143 107.036V99.1071C87.2143 98.0557 86.7966 97.0474 86.0532 96.304C85.3097 95.5605 84.3014 95.1429 83.25 95.1429ZM107.036 95.1429H99.1071C98.0557 95.1429 97.0474 95.5605 96.304 96.304C95.5605 97.0474 95.1429 98.0557 95.1429 99.1071V107.036C95.1429 108.087 95.5605 109.095 96.304 109.839C97.0474 110.582 98.0557 111 99.1071 111H107.036C108.087 111 109.095 110.582 109.839 109.839C110.582 109.095 111 108.087 111 107.036V99.1071C111 98.0557 110.582 97.0474 109.839 96.304C109.095 95.5605 108.087 95.1429 107.036 95.1429ZM107.036 71.3571H99.1071C98.0557 71.3571 97.0474 71.7748 96.304 72.5182C95.5605 73.2617 95.1429 74.27 95.1429 75.3214V83.25C95.1429 84.3014 95.5605 85.3097 96.304 86.0532C97.0474 86.7966 98.0557 87.2143 99.1071 87.2143H107.036C108.087 87.2143 109.095 86.7966 109.839 86.0532C110.582 85.3097 111 84.3014 111 83.25V75.3214C111 74.27 110.582 73.2617 109.839 72.5182C109.095 71.7748 108.087 71.3571 107.036 71.3571ZM107.036 23.7857H99.1071C98.0557 23.7857 97.0474 24.2034 96.304 24.9468C95.5605 25.6903 95.1429 26.6986 95.1429 27.75V35.6786C95.1429 36.73 95.5605 37.7383 96.304 38.4817C97.0474 39.2252 98.0557 39.6429 99.1071 39.6429H107.036C108.087 39.6429 109.095 39.2252 109.839 38.4817C110.582 37.7383 111 36.73 111 35.6786V27.75C111 26.6986 110.582 25.6903 109.839 24.9468C109.095 24.2034 108.087 23.7857 107.036 23.7857ZM59.4643 71.3571H51.5357C50.4843 71.3571 49.476 71.7748 48.7325 72.5182C47.9891 73.2617 47.5714 74.27 47.5714 75.3214V83.25C47.5714 84.3014 47.9891 85.3097 48.7325 86.0532C49.476 86.7966 50.4843 87.2143 51.5357 87.2143H59.4643C60.5157 87.2143 61.524 86.7966 62.2675 86.0532C63.0109 85.3097 63.4286 84.3014 63.4286 83.25V75.3214C63.4286 74.27 63.0109 73.2617 62.2675 72.5182C61.524 71.7748 60.5157 71.3571 59.4643 71.3571ZM59.4643 23.7857H51.5357C50.4843 23.7857 49.476 24.2034 48.7325 24.9468C47.9891 25.6903 47.5714 26.6986 47.5714 27.75V35.6786C47.5714 36.73 47.9891 37.7383 48.7325 38.4817C49.476 39.2252 50.4843 39.6429 51.5357 39.6429H59.4643C60.5157 39.6429 61.524 39.2252 62.2675 38.4817C63.0109 37.7383 63.4286 36.73 63.4286 35.6786V27.75C63.4286 26.6986 63.0109 25.6903 62.2675 24.9468C61.524 24.2034 60.5157 23.7857 59.4643 23.7857ZM35.6786 95.1429H27.75C26.6986 95.1429 25.6903 95.5605 24.9468 96.304C24.2034 97.0474 23.7857 98.0557 23.7857 99.1071V107.036C23.7857 108.087 24.2034 109.095 24.9468 109.839C25.6903 110.582 26.6986 111 27.75 111H35.6786C36.73 111 37.7383 110.582 38.4817 109.839C39.2252 109.095 39.6429 108.087 39.6429 107.036V99.1071C39.6429 98.0557 39.2252 97.0474 38.4817 96.304C37.7383 95.5605 36.73 95.1429 35.6786 95.1429ZM59.4643 0H51.5357C50.4843 0 49.476 0.417664 48.7325 1.16111C47.9891 1.90456 47.5714 2.91289 47.5714 3.96429V11.8929C47.5714 12.9443 47.9891 13.9526 48.7325 14.696C49.476 15.4395 50.4843 15.8571 51.5357 15.8571H59.4643C60.5157 15.8571 61.524 15.4395 62.2675 14.696C63.0109 13.9526 63.4286 12.9443 63.4286 11.8929V3.96429C63.4286 2.91289 63.0109 1.90456 62.2675 1.16111C61.524 0.417664 60.5157 0 59.4643 0ZM83.25 0H75.3214C74.27 0 73.2617 0.417664 72.5182 1.16111C71.7748 1.90456 71.3571 2.91289 71.3571 3.96429V11.8929C71.3571 12.9443 71.7748 13.9526 72.5182 14.696C73.2617 15.4395 74.27 15.8571 75.3214 15.8571H83.25C84.3014 15.8571 85.3097 15.4395 86.0532 14.696C86.7966 13.9526 87.2143 12.9443 87.2143 11.8929V3.96429C87.2143 2.91289 86.7966 1.90456 86.0532 1.16111C85.3097 0.417664 84.3014 0 83.25 0ZM107.036 0H99.1071C98.0557 0 97.0474 0.417664 96.304 1.16111C95.5605 1.90456 95.1429 2.91289 95.1429 3.96429V11.8929C95.1429 12.9443 95.5605 13.9526 96.304 14.696C97.0474 15.4395 98.0557 15.8571 99.1071 15.8571H107.036C108.087 15.8571 109.095 15.4395 109.839 14.696C110.582 13.9526 111 12.9443 111 11.8929V3.96429C111 2.91289 110.582 1.90456 109.839 1.16111C109.095 0.417664 108.087 0 107.036 0ZM11.8929 47.5714H3.96429C2.91289 47.5714 1.90456 47.9891 1.16111 48.7325C0.417665 49.476 0 50.4843 0 51.5357L0 59.4643C0 60.5157 0.417665 61.524 1.16111 62.2675C1.90456 63.0109 2.91289 63.4286 3.96429 63.4286H11.8929C12.9443 63.4286 13.9526 63.0109 14.696 62.2675C15.4395 61.524 15.8571 60.5157 15.8571 59.4643V51.5357C15.8571 50.4843 15.4395 49.476 14.696 48.7325C13.9526 47.9891 12.9443 47.5714 11.8929 47.5714ZM11.8929 95.1429H3.96429C2.91289 95.1429 1.90456 95.5605 1.16111 96.304C0.417665 97.0474 0 98.0557 0 99.1071L0 107.036C0 108.087 0.417665 109.095 1.16111 109.839C1.90456 110.582 2.91289 111 3.96429 111H11.8929C12.9443 111 13.9526 110.582 14.696 109.839C15.4395 109.095 15.8571 108.087 15.8571 107.036V99.1071C15.8571 98.0557 15.4395 97.0474 14.696 96.304C13.9526 95.5605 12.9443 95.1429 11.8929 95.1429ZM11.8929 71.3571H3.96429C2.91289 71.3571 1.90456 71.7748 1.16111 72.5182C0.417665 73.2617 0 74.27 0 75.3214L0 83.25C0 84.3014 0.417665 85.3097 1.16111 86.0532C1.90456 86.7966 2.91289 87.2143 3.96429 87.2143H11.8929C12.9443 87.2143 13.9526 86.7966 14.696 86.0532C15.4395 85.3097 15.8571 84.3014 15.8571 83.25V75.3214C15.8571 74.27 15.4395 73.2617 14.696 72.5182C13.9526 71.7748 12.9443 71.3571 11.8929 71.3571ZM11.8929 23.7857H3.96429C2.91289 23.7857 1.90456 24.2034 1.16111 24.9468C0.417665 25.6903 0 26.6986 0 27.75L0 35.6786C0 36.73 0.417665 37.7383 1.16111 38.4817C1.90456 39.2252 2.91289 39.6429 3.96429 39.6429H11.8929C12.9443 39.6429 13.9526 39.2252 14.696 38.4817C15.4395 37.7383 15.8571 36.73 15.8571 35.6786V27.75C15.8571 26.6986 15.4395 25.6903 14.696 24.9468C13.9526 24.2034 12.9443 23.7857 11.8929 23.7857ZM11.8929 0H3.96429C2.91289 0 1.90456 0.417664 1.16111 1.16111C0.417665 1.90456 0 2.91289 0 3.96429L0 11.8929C0 12.9443 0.417665 13.9526 1.16111 14.696C1.90456 15.4395 2.91289 15.8571 3.96429 15.8571H11.8929C12.9443 15.8571 13.9526 15.4395 14.696 14.696C15.4395 13.9526 15.8571 12.9443 15.8571 11.8929V3.96429C15.8571 2.91289 15.4395 1.90456 14.696 1.16111C13.9526 0.417664 12.9443 0 11.8929 0ZM35.6786 0H27.75C26.6986 0 25.6903 0.417664 24.9468 1.16111C24.2034 1.90456 23.7857 2.91289 23.7857 3.96429V11.8929C23.7857 12.9443 24.2034 13.9526 24.9468 14.696C25.6903 15.4395 26.6986 15.8571 27.75 15.8571H35.6786C36.73 15.8571 37.7383 15.4395 38.4817 14.696C39.2252 13.9526 39.6429 12.9443 39.6429 11.8929V3.96429C39.6429 2.91289 39.2252 1.90456 38.4817 1.16111C37.7383 0.417664 36.73 0 35.6786 0Z" fill="#3EA6DE"/>
</svg>
