<svg width="128" height="112" viewBox="0 0 128 112" fill="none" xmlns="http://www.w3.org/2000/svg">
<path d="M120 32H8C3.58175 32 0 28.4183 0 24V8C0 3.58175 3.58175 0 8 0H120C124.418 0 128 3.58175 128 8V24C128 28.4183 124.418 32 120 32ZM108 10C104.686 10 102 12.6862 102 16C102 19.3137 104.686 22 108 22C111.314 22 114 19.3137 114 16C114 12.6862 111.314 10 108 10ZM92 10C88.6862 10 86 12.6862 86 16C86 19.3137 88.6862 22 92 22C95.3138 22 98 19.3137 98 16C98 12.6862 95.3138 10 92 10ZM120 72H8C3.58175 72 0 68.4183 0 64V48C0 43.5817 3.58175 40 8 40H120C124.418 40 128 43.5817 128 48V64C128 68.4183 124.418 72 120 72ZM108 50C104.686 50 102 52.6862 102 56C102 59.3138 104.686 62 108 62C111.314 62 114 59.3138 114 56C114 52.6862 111.314 50 108 50ZM92 50C88.6862 50 86 52.6862 86 56C86 59.3138 88.6862 62 92 62C95.3138 62 98 59.3138 98 56C98 52.6862 95.3138 50 92 50ZM120 112H8C3.58175 112 0 108.418 0 104V88C0 83.5817 3.58175 80 8 80H120C124.418 80 128 83.5817 128 88V104C128 108.418 124.418 112 120 112ZM108 90C104.686 90 102 92.6862 102 96C102 99.3138 104.686 102 108 102C111.314 102 114 99.3138 114 96C114 92.6862 111.314 90 108 90ZM92 90C88.6862 90 86 92.6862 86 96C86 99.3138 88.6862 102 92 102C95.3138 102 98 99.3138 98 96C98 92.6862 95.3138 90 92 90Z" fill="#3EA6DE"/>
</svg>
