<svg width="96" height="111" viewBox="0 0 96 111" fill="none" xmlns="http://www.w3.org/2000/svg">
<path d="M93.4286 104.087H89.1429V6.11816C89.1429 3.27041 86.8404 0.961914 84 0.961914H12C9.15964 0.961914 6.85714 3.27041 6.85714 6.11816V104.087H2.57143C1.15136 104.087 0 105.241 0 106.665V110.962H96V106.665C96 105.241 94.8486 104.087 93.4286 104.087ZM27.4286 17.29C27.4286 15.8663 28.5799 14.7119 30 14.7119H38.5714C39.9915 14.7119 41.1429 15.8663 41.1429 17.29V25.8838C41.1429 27.3076 39.9915 28.4619 38.5714 28.4619H30C28.5799 28.4619 27.4286 27.3076 27.4286 25.8838V17.29ZM27.4286 37.915C27.4286 36.4913 28.5799 35.3369 30 35.3369H38.5714C39.9915 35.3369 41.1429 36.4913 41.1429 37.915V46.5088C41.1429 47.9326 39.9915 49.0869 38.5714 49.0869H30C28.5799 49.0869 27.4286 47.9326 27.4286 46.5088V37.915ZM38.5714 69.7119H30C28.5799 69.7119 27.4286 68.5576 27.4286 67.1338V58.54C27.4286 57.1163 28.5799 55.9619 30 55.9619H38.5714C39.9915 55.9619 41.1429 57.1163 41.1429 58.54V67.1338C41.1429 68.5576 39.9915 69.7119 38.5714 69.7119ZM54.8571 104.087H41.1429V86.04C41.1429 84.6163 42.2942 83.4619 43.7143 83.4619H52.2857C53.7058 83.4619 54.8571 84.6163 54.8571 86.04V104.087ZM68.5714 67.1338C68.5714 68.5576 67.4201 69.7119 66 69.7119H57.4286C56.0085 69.7119 54.8571 68.5576 54.8571 67.1338V58.54C54.8571 57.1163 56.0085 55.9619 57.4286 55.9619H66C67.4201 55.9619 68.5714 57.1163 68.5714 58.54V67.1338ZM68.5714 46.5088C68.5714 47.9326 67.4201 49.0869 66 49.0869H57.4286C56.0085 49.0869 54.8571 47.9326 54.8571 46.5088V37.915C54.8571 36.4913 56.0085 35.3369 57.4286 35.3369H66C67.4201 35.3369 68.5714 36.4913 68.5714 37.915V46.5088ZM68.5714 25.8838C68.5714 27.3076 67.4201 28.4619 66 28.4619H57.4286C56.0085 28.4619 54.8571 27.3076 54.8571 25.8838V17.29C54.8571 15.8663 56.0085 14.7119 57.4286 14.7119H66C67.4201 14.7119 68.5714 15.8663 68.5714 17.29V25.8838Z" fill="#3EA6DE"/>
</svg>
