<svg width="128" height="128" viewBox="0 0 128 128" fill="none" xmlns="http://www.w3.org/2000/svg">
<path d="M114.656 63.98L126.152 52.7288C129.579 49.4846 127.981 43.7191 123.486 42.6441L107.823 38.6466L112.239 23.1428C113.486 18.6833 109.281 14.4771 104.823 15.7251L89.3249 20.1418L85.3289 4.47411C84.2714 0.0493612 78.4414 -1.56889 75.2477 1.80711L64.0001 13.3926L52.7529 1.80736C49.5953 -1.53039 43.7411 -0.00113916 42.6716 4.47436L38.6756 20.1421L23.1768 15.7253C18.7175 14.4768 14.514 18.6846 15.7615 23.1431L20.1768 38.6468L4.51425 42.6443C0.0172415 43.7196 -1.57751 49.4861 1.848 52.7288L13.3443 63.98L1.848 75.231C-1.57901 78.4753 0.018992 84.2408 4.514 85.3158L20.1765 89.3133L15.7613 104.817C14.5135 109.276 18.7185 113.483 23.1765 112.235L38.6751 107.818L42.6711 123.486C43.7808 128.129 49.5951 129.49 52.7524 126.153L64.0001 114.652L75.2474 126.153C78.3724 129.525 84.2442 128.024 85.3287 123.486L89.3247 107.818L104.823 112.235C109.282 113.483 113.486 109.275 112.238 104.817L107.823 89.3133L123.486 85.3158C127.983 84.2403 129.577 78.474 126.152 75.231L114.656 63.98Z" fill="#F78F31"/>
</svg>
