<svg width="123" height="108" viewBox="0 0 123 108" fill="none" xmlns="http://www.w3.org/2000/svg">
<path d="M119.156 38.5714H115.312V3.85714C115.312 2.83417 114.908 1.85309 114.187 1.12973C113.466 0.406376 112.488 0 111.469 0L99.9375 0C99.2249 0.000605033 98.5265 0.199989 97.9203 0.575885C97.314 0.95178 96.8239 1.48939 96.5045 2.12866L92.6608 9.84295C92.3672 10.4308 92.2282 11.0841 92.257 11.741C92.2858 12.3979 92.4815 13.0365 92.8254 13.5962C93.1694 14.1558 93.6502 14.618 94.2223 14.9387C94.7943 15.2594 95.4385 15.428 96.0938 15.4286H99.9375V38.5714H96.0938C95.0743 38.5714 94.0966 38.9778 93.3758 39.7012C92.655 40.4245 92.25 41.4056 92.25 42.4286V50.1429C92.25 51.1658 92.655 52.1469 93.3758 52.8703C94.0966 53.5936 95.0743 54 96.0938 54H119.156C120.176 54 121.153 53.5936 121.874 52.8703C122.595 52.1469 123 51.1658 123 50.1429V42.4286C123 41.4056 122.595 40.4245 121.874 39.7012C121.153 38.9778 120.176 38.5714 119.156 38.5714ZM80.7188 15.4286H64.623C64.0028 15.4285 63.3917 15.5792 62.842 15.8676C62.2923 16.156 61.8203 16.5736 61.4664 17.0847L42.2716 44.8079L23.0769 17.0847C22.7248 16.5762 22.2559 16.1603 21.7098 15.872C21.1637 15.5837 20.5565 15.4316 19.9395 15.4286H3.84375C2.82432 15.4286 1.84665 15.8349 1.12581 16.5583C0.404965 17.2817 0 18.2627 0 19.2857L0 30.8571C0 31.8801 0.404965 32.8612 1.12581 33.5846C1.84665 34.3079 2.82432 34.7143 3.84375 34.7143H11.8868L30.5794 61.7143L11.8868 88.7143H3.84375C2.82432 88.7143 1.84665 89.1207 1.12581 89.844C0.404965 90.5674 0 91.5485 0 92.5714L0 104.143C0 105.166 0.404965 106.147 1.12581 106.87C1.84665 107.594 2.82432 108 3.84375 108H19.9395C20.5597 108 21.1708 107.849 21.7205 107.561C22.2702 107.273 22.7422 106.855 23.0961 106.344L42.2909 78.6206L61.4856 106.344C61.8377 106.852 62.3066 107.268 62.8527 107.557C63.3988 107.845 64.006 107.997 64.623 108H80.7188C81.7382 108 82.7159 107.594 83.4367 106.87C84.1575 106.147 84.5625 105.166 84.5625 104.143V92.5714C84.5625 91.5485 84.1575 90.5674 83.4367 89.844C82.7159 89.1207 81.7382 88.7143 80.7188 88.7143H72.6757L53.9831 61.7143L72.6757 34.7143H80.7188C81.7382 34.7143 82.7159 34.3079 83.4367 33.5846C84.1575 32.8612 84.5625 31.8801 84.5625 30.8571V19.2857C84.5625 18.2627 84.1575 17.2817 83.4367 16.5583C82.7159 15.8349 81.7382 15.4286 80.7188 15.4286Z" fill="#F78F31"/>
</svg>
