<svg width="96" height="110" viewBox="0 0 96 110" fill="none" xmlns="http://www.w3.org/2000/svg">
<path d="M93.4286 103.125H89.1429V5.15625C89.1429 2.3085 86.8404 0 84 0H12C9.15964 0 6.85714 2.3085 6.85714 5.15625V103.125H2.57143C1.15136 103.125 0 104.279 0 105.703V110H96V105.703C96 104.279 94.8486 103.125 93.4286 103.125ZM27.4286 16.3281C27.4286 14.9044 28.5799 13.75 30 13.75H38.5714C39.9915 13.75 41.1429 14.9044 41.1429 16.3281V24.9219C41.1429 26.3456 39.9915 27.5 38.5714 27.5H30C28.5799 27.5 27.4286 26.3456 27.4286 24.9219V16.3281ZM27.4286 36.9531C27.4286 35.5294 28.5799 34.375 30 34.375H38.5714C39.9915 34.375 41.1429 35.5294 41.1429 36.9531V45.5469C41.1429 46.9706 39.9915 48.125 38.5714 48.125H30C28.5799 48.125 27.4286 46.9706 27.4286 45.5469V36.9531ZM38.5714 68.75H30C28.5799 68.75 27.4286 67.5956 27.4286 66.1719V57.5781C27.4286 56.1544 28.5799 55 30 55H38.5714C39.9915 55 41.1429 56.1544 41.1429 57.5781V66.1719C41.1429 67.5956 39.9915 68.75 38.5714 68.75ZM54.8571 103.125H41.1429V85.0781C41.1429 83.6544 42.2942 82.5 43.7143 82.5H52.2857C53.7058 82.5 54.8571 83.6544 54.8571 85.0781V103.125ZM68.5714 66.1719C68.5714 67.5956 67.4201 68.75 66 68.75H57.4286C56.0085 68.75 54.8571 67.5956 54.8571 66.1719V57.5781C54.8571 56.1544 56.0085 55 57.4286 55H66C67.4201 55 68.5714 56.1544 68.5714 57.5781V66.1719ZM68.5714 45.5469C68.5714 46.9706 67.4201 48.125 66 48.125H57.4286C56.0085 48.125 54.8571 46.9706 54.8571 45.5469V36.9531C54.8571 35.5294 56.0085 34.375 57.4286 34.375H66C67.4201 34.375 68.5714 35.5294 68.5714 36.9531V45.5469ZM68.5714 24.9219C68.5714 26.3456 67.4201 27.5 66 27.5H57.4286C56.0085 27.5 54.8571 26.3456 54.8571 24.9219V16.3281C54.8571 14.9044 56.0085 13.75 57.4286 13.75H66C67.4201 13.75 68.5714 14.9044 68.5714 16.3281V24.9219Z" fill="#F78F31"/>
</svg>
