<svg width="119" height="119" viewBox="0 0 119 119" fill="none" xmlns="http://www.w3.org/2000/svg">
<path d="M27.112 50.9814C27.4522 51.3366 27.8608 51.6193 28.3132 51.8125C28.7655 52.0056 29.2523 52.1052 29.7442 52.1052C30.2361 52.1052 30.7229 52.0056 31.1752 51.8125C31.6276 51.6193 32.0362 51.3366 32.3764 50.9814L54.8632 27.7785C61.4059 21.0383 61.0224 9.85872 53.722 3.63442C47.356 -1.79034 37.8848 -0.814159 32.0417 5.2149L29.75 7.57167L27.4606 5.2149C21.6269 -0.814159 12.144 -1.79034 5.77801 3.63442C-1.52236 9.85872 -1.89191 21.0313 4.6159 27.7785L27.112 50.9814ZM60.5622 74.3376H49.4059L47.7604 71.0278C47.3054 69.8136 46.4906 68.7673 45.4248 68.0288C44.359 67.2903 43.0931 66.8948 41.7964 66.8954H25.1295C23.8328 66.8948 22.5669 67.2903 21.5011 68.0288C20.4353 68.7673 19.6204 69.8136 19.1655 71.0278L17.5386 74.3376H6.38231C5.54408 74.3372 4.71402 74.5021 3.93954 74.8228C3.16507 75.1434 2.46137 75.6135 1.86865 76.2062C1.27594 76.7989 0.805835 77.5026 0.485202 78.2771C0.16457 79.0516 -0.000304995 79.8817 4.23703e-07 80.7199L4.23703e-07 112.62C-0.000304853 113.458 0.164356 114.287 0.484581 115.061C0.804806 115.835 1.27432 116.538 1.86633 117.13C2.45833 117.723 3.16123 118.193 3.93489 118.514C4.70854 118.834 5.53781 119 6.37533 119H60.5622C62.2534 118.999 63.875 118.326 65.0705 117.13C66.266 115.933 66.9375 114.311 66.9375 112.62V80.7199C66.9381 79.0282 66.2669 77.4055 65.0713 76.2087C63.8758 75.0118 62.2538 74.3388 60.5622 74.3376ZM33.4688 108.773C31.0784 108.773 28.7417 108.065 26.7542 106.737C24.7666 105.408 23.2176 103.521 22.3028 101.312C21.388 99.1041 21.1487 96.674 21.615 94.3295C22.0814 91.9851 23.2325 89.8315 24.9227 88.1413C26.6129 86.451 28.7665 85.2999 31.1109 84.8336C33.4553 84.3673 35.8854 84.6066 38.0938 85.5214C40.3023 86.4361 42.1898 87.9852 43.5178 89.9727C44.8459 91.9603 45.5547 94.297 45.5547 96.6874C45.5547 99.8928 44.2813 102.967 42.0148 105.233C39.7482 107.5 36.6741 108.773 33.4688 108.773ZM116.071 81.8355H101.991L107.188 70.0401C107.676 68.4944 106.275 66.9697 104.357 66.9697H86.7887C85.3244 66.9697 84.0786 67.8762 83.8834 69.0848L79.9787 93.9378C79.7463 95.4021 81.1129 96.7013 82.884 96.7013H97.3662L91.7416 115.992C91.3023 117.538 92.7177 118.991 94.5841 118.991C95.0737 119.004 95.5592 118.9 96.0006 118.687C96.442 118.475 96.8265 118.161 97.1221 117.77L118.598 85.4846C119.732 83.8785 118.328 81.8355 116.071 81.8355ZM111.116 0.0760222L76.5853 5.38457C73.1827 5.90752 70.6562 9.04523 70.6562 12.7431V37.5589C69.4323 37.3074 68.1869 37.1751 66.9375 37.1638C58.7214 37.1638 52.0625 42.1562 52.0625 48.3201C52.0625 54.484 58.7214 59.4764 66.9375 59.4764C75.1188 59.4764 81.7497 54.5212 81.8125 48.3991V23.1626L107.844 19.1603V30.126C106.62 29.8745 105.374 29.7422 104.125 29.7309C95.9089 29.7309 89.25 34.7233 89.25 40.8872C89.25 47.0511 95.9089 52.0435 104.125 52.0435C112.306 52.0435 118.937 47.0883 119 40.9662V7.43686C119 2.90926 115.281 -0.563142 111.116 0.0760222Z" fill="#8254A2"/>
</svg>
