<svg width="119" height="110" viewBox="0 0 119 110" fill="none" xmlns="http://www.w3.org/2000/svg">
<path d="M119 23.5715V27.5C119 28.021 118.791 28.5206 118.419 28.889C118.047 29.2574 117.543 29.4643 117.017 29.4643H111.067V32.4108C111.067 34.0379 109.735 35.3572 108.092 35.3572H10.9083C9.26539 35.3572 7.93333 34.0379 7.93333 32.4108V29.4643H1.98333C1.45732 29.4643 0.952852 29.2574 0.580905 28.889C0.208958 28.5206 0 28.021 0 27.5V23.5715C2.83652e-06 23.1829 0.116391 22.803 0.33444 22.4799C0.552488 22.1568 0.862397 21.9051 1.22496 21.7565L58.7416 0.149352C59.2272 -0.0497841 59.7728 -0.0497841 60.2584 0.149352L117.775 21.7565C118.138 21.9051 118.448 22.1568 118.666 22.4799C118.884 22.803 119 23.1829 119 23.5715ZM113.05 98.2143H5.95C2.66386 98.2143 0 100.853 0 104.107V108.036C0 108.557 0.208958 109.056 0.580905 109.425C0.952852 109.793 1.45732 110 1.98333 110H117.017C117.543 110 118.047 109.793 118.419 109.425C118.791 109.056 119 108.557 119 108.036V104.107C119 100.853 116.336 98.2143 113.05 98.2143ZM19.8333 39.2858V86.4286H10.9083C9.26539 86.4286 7.93333 87.7478 7.93333 89.375V94.2857H111.067V89.375C111.067 87.7478 109.735 86.4286 108.092 86.4286H99.1667V39.2858H83.3V86.4286H67.4333V39.2858H51.5667V86.4286H35.7V39.2858H19.8333Z" fill="#8254A2"/>
</svg>
