<svg width="122" height="123" viewBox="0 0 122 123" fill="none" xmlns="http://www.w3.org/2000/svg">
<path d="M82.7848 37.6936C79.2176 15.5486 70.8038 0 61.0123 0C51.2208 0 42.807 15.5486 39.2398 37.6936H82.7848ZM37.3946 61.5C37.3946 67.0052 37.6899 72.2873 38.2065 77.371H83.7935C84.3102 72.2873 84.6054 67.0052 84.6054 61.5C84.6054 55.9948 84.3102 50.7127 83.7935 45.629H38.2065C37.6899 50.7127 37.3946 55.9948 37.3946 61.5ZM117.276 37.6936C110.24 20.8554 95.996 7.83629 78.4057 2.57903C84.4086 10.9609 88.5416 23.5833 90.7066 37.6936H117.276ZM43.5943 2.57903C26.0286 7.83629 11.7596 20.8554 4.74813 37.6936H31.318C33.4584 23.5833 37.5914 10.9609 43.5943 2.57903ZM119.909 45.629H91.6907C92.2073 50.8367 92.5025 56.1683 92.5025 61.5C92.5025 66.8317 92.2073 72.1633 91.6907 77.371H119.884C121.237 72.2873 122 67.0052 122 61.5C122 55.9948 121.237 50.7127 119.909 45.629ZM29.5221 61.5C29.5221 56.1683 29.8173 50.8367 30.3339 45.629H2.11575C0.787256 50.7127 0 55.9948 0 61.5C0 67.0052 0.787256 72.2873 2.11575 77.371H30.3093C29.8173 72.1633 29.5221 66.8317 29.5221 61.5ZM39.2398 85.3064C42.807 107.451 51.2208 123 61.0123 123C70.8038 123 79.2176 107.451 82.7848 85.3064H39.2398ZM78.4303 120.421C95.996 115.164 110.265 102.145 117.301 85.3064H90.7312C88.5662 99.4167 84.4332 112.039 78.4303 120.421ZM4.74813 85.3064C11.7842 102.145 26.0286 115.164 43.6189 120.421C37.6161 112.039 33.483 99.4167 31.318 85.3064H4.74813Z" fill="#8254A2"/>
</svg>
