<svg width="100" height="78" viewBox="0 0 100 78" fill="none" xmlns="http://www.w3.org/2000/svg">
<path d="M94.137 0.00945504C84.623 0.550926 65.713 2.52181 54.0391 9.68802C53.2336 10.1825 52.777 11.0617 52.777 11.981V75.3331C52.777 77.344 54.9697 78.615 56.8187 77.6818C68.8293 71.6194 86.1994 69.9654 94.7881 69.5127C97.7204 69.3577 100 67.0003 100 64.1746V5.35452C100.002 2.2711 97.335 -0.171615 94.137 0.00945504ZM45.9609 9.68802C34.2888 2.52181 15.3787 0.552667 5.86469 0.00945504C2.66671 -0.171615 0 2.2711 0 5.35452V64.1763C0 67.0038 2.27955 69.3612 5.2119 69.5144C13.8041 69.9671 31.1828 71.6228 43.1935 77.6887C45.0372 78.6202 47.223 77.351 47.223 75.3452V11.9497C47.223 11.0286 46.7682 10.1842 45.9609 9.68802Z" fill="#8254A2"/>
</svg>
