<svg width="128" height="82" viewBox="0 0 128 82" fill="none" xmlns="http://www.w3.org/2000/svg">
<path d="M252.235 56.0474C251.803 56.0474 251.409 56.3287 251.206 56.9167C248.603 64.3957 245.085 68.8447 242.189 68.8447C240.525 68.8447 239.852 66.9782 239.852 64.0505C239.852 56.725 244.208 41.1918 246.405 34.1091C246.659 33.2526 246.824 32.4855 246.824 31.8335C246.824 29.7752 245.707 28.7652 242.938 28.7652C239.954 28.7652 236.741 29.9414 233.617 35.4515C232.537 30.5934 229.273 28.4712 224.714 28.4712C219.443 28.4712 214.351 31.8846 210.16 37.4203C205.969 42.956 201.041 44.7714 197.333 43.8765C200 37.3053 200.99 32.396 200.99 28.7524C200.99 23.0377 198.184 19.5859 193.65 19.5859C186.753 19.5859 182.778 26.2083 182.778 33.1759C182.778 38.5582 185.204 44.0939 190.538 46.7786C186.068 56.9551 179.54 66.16 177.063 66.16C173.863 66.16 172.923 50.3966 173.101 39.1207C173.215 32.6517 173.749 32.3193 173.749 30.3633C173.749 29.2382 173.025 28.4712 170.117 28.4712C163.335 28.4712 161.239 34.2498 160.922 40.8849C160.819 43.4065 160.427 45.9076 159.753 48.3383C156.921 58.5148 151.079 66.2367 147.269 66.2367C145.504 66.2367 145.021 64.4596 145.021 62.1328C145.021 54.8073 149.098 45.6536 149.098 37.8422C149.098 32.102 146.596 28.4712 141.884 28.4712C136.335 28.4712 128.994 35.1191 122.047 47.5712C124.333 38.034 125.273 28.8036 118.504 28.8036C117.035 28.8256 115.593 29.2027 114.3 29.903C113.866 30.1074 113.503 30.4387 113.258 30.8537C113.013 31.2687 112.899 31.7482 112.928 32.2298C113.576 42.3807 104.8 68.3845 96.4819 68.3845C94.9706 68.3845 94.234 66.7353 94.234 64.0761C94.234 56.7378 98.5774 41.2429 100.762 34.1475C101.041 33.227 101.194 32.4344 101.194 31.744C101.194 29.8007 99.9998 28.8036 97.2947 28.8036C94.3229 28.8036 91.0971 29.9414 87.9856 35.4515C86.8934 30.5934 83.6295 28.4712 79.0702 28.4712C71.5899 28.4712 63.2333 36.4359 59.563 46.817C54.6481 60.6754 44.7421 74.0608 31.4071 74.0608C19.304 74.0608 12.9159 63.9227 12.9159 47.9036C12.9159 24.7764 29.7815 5.88089 42.291 5.88089C48.2727 5.88089 51.1302 9.71625 51.1302 15.5971C51.1302 22.7181 47.1805 26.0293 47.1805 28.7396C47.1805 29.5706 47.8663 30.3888 49.2252 30.3888C54.6608 30.3888 61.0616 23.9582 61.0616 15.188C61.0616 6.41784 53.9877 0 41.4782 0C20.8026 0 0 20.9411 0 47.7758C0 69.126 10.4648 82 28.5623 82C40.9067 82 51.689 72.3349 57.5056 61.0589C58.166 70.4044 62.3824 75.2881 68.8086 75.2881C74.5236 75.2881 79.1464 71.8619 82.677 65.8403C84.0359 72.1431 87.6427 75.2242 92.329 75.2242C97.7011 75.2242 102.197 71.7979 106.477 65.4312C106.413 70.43 107.544 75.1347 111.849 75.1347C113.881 75.1347 116.307 74.6617 116.738 72.8718C121.272 54.0019 132.474 38.5965 135.903 38.5965C136.919 38.5965 137.198 39.5809 137.198 40.7443C137.198 45.8709 133.604 56.3798 133.604 63.0917C133.604 70.3405 136.665 75.1347 142.989 75.1347C150 75.1347 157.124 66.4924 161.874 53.8612C163.36 65.6614 166.573 75.1858 171.602 75.1858C177.775 75.1858 188.735 62.1073 195.377 48.2616C197.98 48.594 201.892 48.5045 205.651 45.8326C204.051 49.9108 203.111 54.3726 203.111 58.8344C203.111 71.6829 209.207 75.2881 214.452 75.2881C220.154 75.2881 224.777 71.8619 228.321 65.8403C229.489 71.2738 232.473 75.2114 237.96 75.2114C246.545 75.2114 254 66.3773 254 59.1285C254 57.2108 253.187 56.0474 252.235 56.0474ZM74.041 68.1671C70.5739 68.1671 69.215 64.6514 69.215 59.4097C69.215 50.3071 75.3999 35.1063 81.9404 35.1063C84.7979 35.1063 85.8774 38.4942 85.8774 42.6364C85.8774 51.8796 79.9973 68.1671 74.041 68.1671ZM192.799 41C190.729 38.5198 189.979 35.1447 189.979 32.1403C189.979 28.4328 191.326 25.3006 192.938 25.3006C194.551 25.3006 195.047 26.8987 195.047 29.1232C195.047 32.8435 193.726 38.2769 192.799 41ZM219.685 68.1671C216.217 68.1671 214.859 64.1272 214.859 59.4097C214.859 50.6268 221.043 35.1063 227.635 35.1063C230.492 35.1063 231.508 38.4687 231.508 42.6364C231.508 51.8796 225.73 68.1671 219.685 68.1671Z" fill="url(#paint0_linear_38_64)"/>
<defs>
<linearGradient id="paint0_linear_38_64" x1="0" y1="41" x2="254" y2="41" gradientUnits="userSpaceOnUse">
<stop stop-color="#03C2CC"/>
<stop offset="1" stop-color="#7D2BE7"/>
</linearGradient>
</defs>
</svg>
