<svg width="115" height="87" viewBox="0 0 115 87" fill="none" xmlns="http://www.w3.org/2000/svg">
<mask id="mask0_37_45" style="mask-type:luminance" maskUnits="userSpaceOnUse" x="0" y="0" width="115" height="87">
<path d="M0 0.379883H115V86.6218H0V0.379883Z" fill="white"/>
</mask>
<g mask="url(#mask0_37_45)">
<path d="M115 41.576V45.4256C114.964 45.6345 114.919 45.8395 114.895 46.0473C114.699 47.7219 114.572 49.4071 114.301 51.0692C113.417 56.4712 111.506 61.4922 108.667 66.1348C104.355 73.1836 98.5252 78.5586 91.1992 82.2293C86.971 84.3579 82.4122 85.7258 77.7249 86.2724C76.6837 86.3946 75.6435 86.5043 74.6023 86.6208H34.2019C33.9984 86.5823 33.7958 86.5207 33.5904 86.5082C29.5167 86.2474 25.5972 85.3032 21.8614 83.6412C13.7281 80.0225 7.66383 74.1575 3.6942 66.0848C1.94009 62.524 0.804904 58.6816 0.338848 54.7274C0.224321 53.7659 0.112634 52.8054 0 51.8449V48.1098C0.0388066 47.9029 0.0984362 47.696 0.110741 47.4881C0.321811 43.8992 1.04588 40.4143 2.32082 37.0651C5.75189 28.0531 11.7328 21.3691 20.2324 17.0431C24.6422 14.7978 29.3425 13.6178 34.2586 13.3561C36.6656 13.229 39.0707 13.3657 41.4634 13.6919C41.6802 13.7218 41.9925 13.6236 42.143 13.4667C45.5835 9.8933 49.5011 6.99066 53.9184 4.79058C58.2032 2.65691 62.7124 1.28162 67.4591 0.731121C68.576 0.601196 69.6957 0.494368 70.8144 0.376953H74.2588C74.484 0.412562 74.7102 0.452984 74.9355 0.479931C76.6421 0.682038 78.3581 0.809077 80.0485 1.09684C85.3224 1.9967 90.2319 3.92152 94.7751 6.78086C101.741 11.1656 107.05 17.1008 110.677 24.573C112.775 28.8743 114.122 33.5135 114.657 38.2835C114.78 39.3817 114.885 40.4798 115 41.576ZM50.6994 16.6658C50.7685 16.7582 50.7855 16.8015 50.8149 16.8159C53.1801 18.0014 55.4408 19.3914 57.5719 20.9707C57.7063 21.0698 58.0395 21.0284 58.2023 20.9245C64.0593 17.1509 70.4084 15.8487 77.2289 17.0787C83.9121 18.2836 89.3507 21.679 93.5059 27.1022C98.2109 33.2395 100.005 40.1795 98.706 47.9009C97.8352 53.0758 95.7964 57.7185 92.3313 61.6077C86.0086 68.6978 78.0911 71.6302 68.7709 70.3887C63.0332 69.6246 58.0802 67.1078 53.9809 62.8954C48.7193 57.4914 43.4236 52.1231 38.1469 46.7335C37.4436 46.0156 36.6609 45.4381 35.6481 45.3121C33.8791 45.0917 32.2738 45.9896 31.51 47.6055C30.8285 49.0481 30.9165 50.6746 32.395 52.1529C38.2775 58.0246 44.1079 63.9502 49.9838 69.8276C50.9895 70.8387 52.068 71.7719 53.2104 72.6196C57.5028 75.7888 62.3423 77.5414 67.5831 78.2468C71.6966 78.7992 75.7779 78.6809 79.828 77.755C87.5533 75.9909 93.9526 71.9815 98.9928 65.7951C103.155 60.6828 105.671 54.8082 106.549 48.2128C107.057 44.4518 106.951 40.6312 106.234 36.9054C105.066 30.8133 102.531 25.3622 98.4693 20.7224C90.7203 11.8749 80.9714 7.92517 69.3701 8.80674C64.9073 9.14551 60.6859 10.4784 56.7135 12.5929C54.5698 13.7254 52.5533 15.091 50.6994 16.6658ZM47.8608 78.4297C47.7012 78.2793 47.5422 78.1282 47.3838 77.9764C44.9787 75.6675 42.5604 73.3732 40.1837 71.0345C39.7237 70.5822 39.3007 70.3618 38.6495 70.3772C36.2425 70.4368 33.8337 70.4474 31.4617 69.9027C19.6683 67.1906 12.8204 54.1528 17.1667 42.6808C20.5949 33.6351 30.0855 28.1262 39.4445 29.8249C43.6394 30.5862 47.3213 32.3917 50.3435 35.5609C54.0292 39.4298 57.8246 43.188 61.5501 47.0175C62.3981 47.8894 63.3721 48.2869 64.5467 48.1165C66.0649 47.8961 67.2736 47.1609 67.8225 45.647C68.3602 44.1572 68.0999 42.7463 66.9906 41.6039C63.0806 37.5762 59.2633 33.4474 55.1953 29.591C47.3052 22.1083 38.0011 19.8832 27.7107 23.0649C13.87 27.3409 5.76988 41.8734 8.93214 56.2133C11.8142 69.2791 23.0521 78.4489 36.2018 78.4605C39.8733 78.4643 43.5457 78.4624 47.2172 78.4605C47.3989 78.4605 47.5807 78.4441 47.8608 78.4297Z" fill="#DA1F26"/>
</g>
</svg>
