<svg width="94" height="105" viewBox="0 0 94 105" fill="none" xmlns="http://www.w3.org/2000/svg">
<g clip-path="url(#clip0_37_26)">
<path d="M37.7979 2.44824L37.2698 2.77257C36.4299 3.2885 35.6387 3.86536 34.9003 4.49567L36.4234 3.4078H49.35L51.7 21.4774L39.95 33.4092L28.2 41.7028V51.2661C28.2 57.9456 31.6378 64.1394 37.2649 67.5982L49.6346 75.2014L23.5 90.6824H18.4595L9.06482 84.9079C3.43772 81.4491 0 75.2553 0 68.5759V36.4175C0 29.7359 3.43991 23.5404 9.06987 20.0823L37.2698 2.76083C37.4447 2.65349 37.6207 2.5493 37.7979 2.44824Z" fill="url(#paint0_radial_37_26)"/>
<path d="M37.7979 2.44824L37.2698 2.77257C36.4299 3.2885 35.6387 3.86536 34.9003 4.49567L36.4234 3.4078H49.35L51.7 21.4774L39.95 33.4092L28.2 41.7028V51.2661C28.2 57.9456 31.6378 64.1394 37.2649 67.5982L49.6346 75.2014L23.5 90.6824H18.4595L9.06482 84.9079C3.43772 81.4491 0 75.2553 0 68.5759V36.4175C0 29.7359 3.43991 23.5404 9.06987 20.0823L37.2698 2.76083C37.4447 2.65349 37.6207 2.5493 37.7979 2.44824Z" fill="url(#paint1_linear_37_26)"/>
<path d="M65.8 40.5684V51.26C65.8 57.9394 62.3622 64.1332 56.7351 67.592L28.5351 84.9256C22.7663 88.4715 15.5887 88.5994 9.71841 85.3096L37.2646 102.242C43.2492 105.92 50.7504 105.92 56.7351 102.242L84.9351 84.9077C90.5622 81.4489 93.9998 75.2551 93.9998 68.5757V60.8525L91.6498 57.2729L65.8 40.5684Z" fill="url(#paint2_radial_37_26)"/>
<path d="M65.8 40.5684V51.26C65.8 57.9394 62.3622 64.1332 56.7351 67.592L28.5351 84.9256C22.7663 88.4715 15.5887 88.5994 9.71841 85.3096L37.2646 102.242C43.2492 105.92 50.7504 105.92 56.7351 102.242L84.9351 84.9077C90.5622 81.4489 93.9998 75.2551 93.9998 68.5757V60.8525L91.6498 57.2729L65.8 40.5684Z" fill="url(#paint3_linear_37_26)"/>
<path d="M84.9302 20.0822L56.7302 2.76072C50.9334 -0.799901 43.7149 -0.910199 37.8301 2.4298L37.2698 2.77392C31.6399 6.23204 28.2 12.4274 28.2 19.109V41.7411L37.2698 36.1699C43.252 32.4956 50.748 32.4956 56.7302 36.1699L84.9302 53.4913C90.3841 56.8415 93.7829 62.7602 93.9899 69.2012C93.9967 68.9931 94 68.7848 94 68.5757V36.4173C94 29.7357 90.5601 23.5403 84.9302 20.0822Z" fill="url(#paint4_radial_37_26)"/>
<path d="M84.9302 20.0822L56.7302 2.76072C50.9334 -0.799901 43.7149 -0.910199 37.8301 2.4298L37.2698 2.77392C31.6399 6.23204 28.2 12.4274 28.2 19.109V41.7411L37.2698 36.1699C43.252 32.4956 50.748 32.4956 56.7302 36.1699L84.9302 53.4913C90.3841 56.8415 93.7829 62.7602 93.9899 69.2012C93.9967 68.9931 94 68.7848 94 68.5757V36.4173C94 29.7357 90.5601 23.5403 84.9302 20.0822Z" fill="url(#paint5_linear_37_26)"/>
</g>
<defs>
<radialGradient id="paint0_radial_37_26" cx="0" cy="0" r="1" gradientUnits="userSpaceOnUse" gradientTransform="translate(31.5337 20.6142) rotate(110.241) scale(79.4745 137.017)">
<stop offset="0.06441" stop-color="#AE7FE2"/>
<stop offset="1" stop-color="#0078D4"/>
</radialGradient>
<linearGradient id="paint1_linear_37_26" x1="31.753" y1="85.5954" x2="20.3061" y2="66.0989" gradientUnits="userSpaceOnUse">
<stop stop-color="#114A8B"/>
<stop offset="1" stop-color="#0078D4" stop-opacity="0"/>
</linearGradient>
<radialGradient id="paint2_radial_37_26" cx="0" cy="0" r="1" gradientUnits="userSpaceOnUse" gradientTransform="translate(15.1103 81.9744) rotate(-8.49477) scale(72.9923 48.9301)">
<stop offset="0.133928" stop-color="#D59DFF"/>
<stop offset="1" stop-color="#5E438F"/>
</radialGradient>
<linearGradient id="paint3_linear_37_26" x1="85.438" y1="55.7857" x2="73.2007" y2="73.0652" gradientUnits="userSpaceOnUse">
<stop stop-color="#493474"/>
<stop offset="1" stop-color="#8C66BA" stop-opacity="0"/>
</linearGradient>
<radialGradient id="paint4_radial_37_26" cx="0" cy="0" r="1" gradientUnits="userSpaceOnUse" gradientTransform="translate(87.0797 58.4757) rotate(-165.561) scale(58.6237 100.026)">
<stop offset="0.0584996" stop-color="#50E6FF"/>
<stop offset="1" stop-color="#436DCD"/>
</radialGradient>
<linearGradient id="paint5_linear_37_26" x1="30.4931" y1="2.52153" x2="48.144" y2="2.52153" gradientUnits="userSpaceOnUse">
<stop stop-color="#2D3F80"/>
<stop offset="1" stop-color="#436DCD" stop-opacity="0"/>
</linearGradient>
<clipPath id="clip0_37_26">
<rect width="94" height="105" fill="white"/>
</clipPath>
</defs>
</svg>
