<svg width="108" height="105" viewBox="0 0 108 105" fill="none" xmlns="http://www.w3.org/2000/svg">
<g clip-path="url(#clip0_37_53)">
<path d="M97.7143 35.9989C88.7909 34.5344 72.8515 33.9554 67.4021 42.3336C63.1788 48.7705 71.1486 57.6256 78.4031 66.174C84.193 73.0197 90.5279 79.5928 87.9395 83.4073C85.8278 86.5406 72.3406 86.5406 67.6746 86.779C62.0208 87.0855 53.8808 87.0855 52.4844 87.8688C51.2242 88.55 50.509 90.6956 55.2772 91.5471C59.1259 92.2282 68.2536 93.6246 77.8922 93.6246C87.9735 93.6246 98.5317 91.9557 100.814 84.1906C102.653 77.924 96.2498 71.2146 90.6301 64.403C84.4996 56.9444 78.2668 51.6314 78.7777 46.3524C79.1864 42.2315 87.2242 42.0271 100.575 41.7887C103.334 41.7547 108.886 41.6184 107.83 39.4047C106.876 37.4634 102.755 36.8163 97.6803 35.9989" fill="#EE2722"/>
<path d="M56.6395 54.5946C50.9177 50.6779 40.7342 49.3497 32.3557 49.7924C24.8969 50.2011 12.0568 52.5511 12.5336 54.9351C12.9764 57.4895 21.1164 56.7061 24.8288 56.7061C33.0369 56.7061 46.0132 57.217 48.0568 62.496C52.4844 73.8712 22.5468 94.2718 16.1438 92.3305C13.2488 91.445 22.0019 76.5959 25.1693 71.2829C27.0426 68.0814 29.9376 63.0749 27.4853 62.7344C24.7266 62.3597 21.7294 67.0597 19.754 69.7843C14.4409 77.1748 8.95743 85.2125 4.59792 93.4885C3.23558 96.0428 -1.26017 103.74 0.306531 104.728C1.73699 105.647 8.58278 104.319 17.3018 100.879C44.685 90.0487 57.0142 75.9147 60.3179 64.2329C61.4759 60.1119 59.4664 56.5359 56.6395 54.5946Z" fill="#EE2722"/>
<path d="M36.3065 4.73412C35.7275 2.895 44.8893 0.510958 54.9025 0.0682071C64.9839 -0.374543 76.9385 1.63486 79.1523 8.27612C82.7966 19.1746 64.3027 35.0796 48.227 42.9128C44.2762 44.8201 41.8921 45.365 40.8704 45.2288C39.9167 45.0925 39.7805 44.207 40.087 43.594C40.666 42.436 43.2545 40.1201 46.7285 37.5658C64.8477 24.3173 70.7398 14.6109 67.3339 10.6942C65.1201 8.17395 55.9584 6.40295 46.4219 6.40295C43.8335 6.40295 37.0217 6.98193 36.3406 4.73412" fill="#EE2722"/>
</g>
<defs>
<clipPath id="clip0_37_53">
<rect width="108" height="105" fill="white"/>
</clipPath>
</defs>
</svg>
